<svg width="408" height="397" viewBox="0 0 408 397" fill="none" xmlns="http://www.w3.org/2000/svg">
<path d="M168.949 66.5396C167.676 64.3975 167.222 61.8528 167.789 59.1108C169.718 49.7882 181.382 51.0571 182.5 45.6515C183.003 43.2229 181.622 40.8133 177.313 39.9222C173.396 39.112 169.701 40.39 166.673 42.7863L161.801 34.3447C166.958 30.3463 173.793 28.9006 180.53 30.2941C190.636 32.3844 195.772 38.7567 194.265 46.0425C191.899 57.4804 178.638 55.6362 177.277 62.2169C177.018 63.4703 177.369 64.9318 178.006 65.7989L168.949 66.5396ZM169.225 84.1609C165.778 83.448 163.479 79.9498 164.192 76.5027C164.905 73.0557 168.403 70.7566 171.85 71.4695C175.297 72.1825 177.596 75.6807 176.883 79.1277C176.171 82.5748 172.672 84.8739 169.225 84.1609Z" fill="#D08D7A"/>
<path d="M144.723 50.6973C143.08 49.5693 141.895 47.8742 141.386 45.6928C139.655 38.2761 148.551 35.2797 147.547 30.9793C147.096 29.0472 145.284 27.7614 141.857 28.5615C138.74 29.2888 136.486 31.4579 135.093 34.2149L128.72 29.7217C131.122 25.0865 135.599 21.7414 140.959 20.4903C148.998 18.6137 154.868 21.5156 156.221 27.3118C158.344 36.4112 148.096 39.5262 149.318 44.7615C149.551 45.7587 150.297 46.7018 151.051 47.1173L144.723 50.6973ZM150.842 63.3989C148.1 64.0389 145.256 62.2712 144.616 59.5289C143.976 56.7866 145.743 53.9423 148.486 53.3023C151.228 52.6622 154.072 54.4299 154.712 57.1722C155.352 59.9145 153.585 62.7588 150.842 63.3989Z" fill="#D08D7A"/>
<path d="M380 123.391C349.23 140.506 327.342 172.799 322.794 207.794C323.225 178.373 328.022 149.019 336.978 121C315.863 146.662 303.119 179.142 301.135 212.356C299.801 193.863 298.467 175.37 297.133 156.877C284.024 182.343 282.876 212.089 281.999 240.735C276.394 228.895 268.547 218.126 259 209.177C262.689 226.774 266.448 246.404 270.137 264L345.736 263.82L344.332 248.663C339.78 204.404 352.83 158.565 380 123.391Z" fill="#39B51B" fill-opacity="0.5"/>
<path d="M171.795 236.504C166.567 239.18 162.361 243.765 160.17 249.178C154.425 243.187 150.969 235.085 150.639 226.824C144.058 229.444 139.644 236.623 140.311 243.621C130.098 234.178 119.887 224.735 109.675 215.292C108.101 226.443 106.525 237.593 104.952 248.744C99.0952 232.227 90.5863 216.636 79.8432 202.739C79.6236 215.367 79.4056 227.997 79.1861 240.624C64.5099 211.332 42.3329 185.77 15.3125 167C23.3213 184.575 31.3879 202.321 35.3931 221.192C27.8971 206.236 15.2195 193.889 0 186.723C16.5754 208.938 28.2834 233.952 34.4234 260.903L181.346 261C181.346 261 175.105 244.966 186 239.571L171.795 236.504Z" fill="#39B51B" fill-opacity="0.5"/>
<path d="M41.8941 238.825C41.8941 238.825 102.757 232.44 126.028 238.867C126.028 238.867 187.619 258.939 267.263 240.902C268.887 240.536 318.663 234.02 343.169 236.877C343.169 236.877 361.13 238.239 365.499 245.488C365.499 245.488 367.246 251.978 375.445 254.516C375.445 254.516 390.946 264.277 370.159 268.8C370.159 268.8 227.239 281.895 149.793 272.765C149.793 272.765 135.062 269.533 122.083 273.263C122.083 273.263 99.2867 274.936 72.0323 264.479C72.0323 264.479 56.0071 261.891 45.9278 263.578C45.9278 263.578 19.551 265.56 29.0723 251.043C29.0723 251.043 42.6642 245.404 41.8941 238.825Z" fill="#02004F"/>
<path d="M45.9754 294.556C45.9658 294.609 45.5678 294.573 44.8485 294.46C44.1276 294.362 43.1029 294.099 41.8737 293.667C40.638 293.247 39.2282 292.574 37.748 291.683C36.2869 290.761 34.7684 289.602 33.3537 288.192C31.9566 286.763 30.8121 285.232 29.9042 283.763C29.0282 282.273 28.3696 280.857 27.9604 279.616C27.5416 278.384 27.2875 277.356 27.1964 276.635C27.0909 275.916 27.0573 275.518 27.1116 275.508C27.2539 275.481 27.5272 277.06 28.4784 279.421C28.9419 280.606 29.634 281.958 30.5164 283.382C31.4308 284.787 32.5561 286.255 33.9084 287.641C35.2799 289.007 36.7362 290.146 38.1316 291.074C39.5479 291.971 40.8922 292.676 42.0719 293.151C44.4265 294.124 46.0042 294.414 45.9754 294.556Z" fill="#263238"/>
<path d="M53.6024 292.096C53.5816 292.175 52.0662 291.882 49.7836 290.899C47.5057 289.926 44.5054 288.15 41.7416 285.533C38.9858 282.905 37.0596 279.999 35.9711 277.774C34.8729 275.544 34.5021 274.046 34.5804 274.021C34.7051 273.973 35.2581 275.394 36.4586 277.512C37.6527 279.63 39.5948 282.403 42.2803 284.964C44.9737 287.514 47.8414 289.313 50.0186 290.397C52.1957 291.489 53.644 291.969 53.6024 292.096Z" fill="#263238"/>
<path d="M393.136 378.622C393.185 378.644 393.055 379.021 392.771 379.692C392.502 380.368 391.999 381.299 391.283 382.387C390.577 383.485 389.583 384.69 388.362 385.912C387.114 387.107 385.622 388.3 383.912 389.333C382.188 390.343 380.426 391.084 378.781 391.61C377.124 392.101 375.59 392.398 374.288 392.495C372.991 392.604 371.932 392.602 371.21 392.517C370.487 392.445 370.093 392.382 370.096 392.327C370.104 392.182 371.703 392.298 374.224 391.946C375.485 391.782 376.965 391.437 378.56 390.924C380.144 390.376 381.84 389.639 383.511 388.661C385.169 387.66 386.625 386.522 387.863 385.392C389.075 384.235 390.084 383.1 390.83 382.07C392.343 380.02 393.005 378.559 393.136 378.622Z" fill="#263238"/>
<path d="M392.589 370.63C392.66 370.669 392.011 372.068 390.505 374.046C389.011 376.021 386.563 378.504 383.356 380.554C380.14 382.594 376.855 383.761 374.433 384.28C372.004 384.807 370.461 384.805 370.455 384.723C370.438 384.59 371.951 384.397 374.296 383.743C376.64 383.096 379.8 381.881 382.934 379.894C386.058 377.896 388.497 375.548 390.075 373.697C391.66 371.848 392.475 370.558 392.589 370.63Z" fill="#263238"/>
<path d="M271.573 224.992C271.573 224.992 306.065 254.011 347.194 279.262C388.343 304.531 406.807 328.797 406.589 336.093C406.352 343.39 382.181 336.799 382.181 336.799C382.181 336.799 419.685 356.145 403.4 355.718C387.114 355.291 380.101 339.472 380.101 339.472C380.101 339.472 384.935 353.341 372.83 349.535C360.725 345.729 366.431 347.976 328.254 310.063C290.077 272.151 256.021 247.773 256.021 247.773L271.573 224.992Z" fill="#E6D000" stroke="#263238" stroke-width="0.533837" stroke-miterlimit="10" stroke-linecap="round" stroke-linejoin="round"/>
<path d="M382.159 336.803C382.159 336.803 406.349 343.413 406.567 336.097C406.647 333.851 404.923 329.989 401.337 324.995C400.941 325.849 399.95 326.48 397.91 326.61C390.48 327.056 382.952 321.189 382.952 321.189C382.952 321.189 373.125 305.407 371.738 306.763C370.352 308.118 369.302 309.12 361.099 305.259C352.897 301.397 350.084 302.437 345.369 296.867C340.674 291.297 321.932 272.34 321.971 274.327C322.011 276.314 322.764 279.284 319.891 277.019C317.019 274.736 285.023 245.698 280.327 241.112C275.652 236.545 268.797 229.341 268.797 229.341L263.23 237.194L257.544 245.531C260.496 247.462 306.162 277.242 308.579 278.17C311.075 279.136 298.613 275.664 304.022 280.9C309.431 286.135 352.244 306.391 353.373 309.362C354.482 312.332 343.11 310.179 349.549 314.059C355.988 317.939 378.118 328.225 375.324 330.268C372.531 332.291 368.291 332.7 360.446 329.172C355.433 326.926 340.396 318.069 330.154 311.961C366.211 347.887 360.941 345.826 372.848 349.558C384.953 353.364 380.119 339.495 380.119 339.495C380.119 339.495 387.112 355.314 403.417 355.741C419.663 356.149 382.159 336.803 382.159 336.803Z" fill="#263238" stroke="#263238" stroke-width="0.533837" stroke-miterlimit="10" stroke-linecap="round" stroke-linejoin="round"/>
<path d="M113.77 181.66C113.77 181.66 119.278 260.883 207.796 261.458C256.513 261.774 287.697 223.787 274.126 188.177C260.555 152.567 208.589 107.915 164.151 103.477C119.714 99.0213 96.2964 126.889 92.4331 140.369C88.55 153.866 95.7218 164.022 113.77 181.66Z" fill="white" stroke="#263238" stroke-width="0.533837" stroke-miterlimit="10" stroke-linecap="round" stroke-linejoin="round"/>
<path d="M190.558 110.274C185.981 109.067 183.049 108.324 183.049 108.324C183.049 108.324 205.773 137.065 180.156 138.457C180.156 138.457 207.774 147.611 229.567 160.496C241.058 167.291 253.836 168.665 263.346 168.442C247.179 145.086 219.146 121.673 190.558 110.274Z" fill="#E6D000" stroke="#263238" stroke-width="0.533837" stroke-miterlimit="10" stroke-linecap="round" stroke-linejoin="round"/>
<path d="M96.0506 147.348C96.0506 147.348 84.4608 152.825 83.0938 156.167C81.7268 159.509 95.5355 159.305 100.766 154.905C105.996 150.505 98.2299 150.969 98.2299 150.969C98.2299 150.969 98.8242 144.322 96.0506 147.348Z" fill="#263238" stroke="#263238" stroke-width="0.106767" stroke-miterlimit="10" stroke-linecap="round" stroke-linejoin="round"/>
<path d="M127.369 136.911C127.408 139.473 125.07 141.589 122.138 141.626C119.206 141.664 116.789 139.621 116.75 137.059C116.71 134.497 119.048 132.38 121.98 132.343C124.912 132.306 127.329 134.348 127.369 136.911Z" fill="#263238" stroke="#263238" stroke-width="0.533837" stroke-miterlimit="10" stroke-linecap="round" stroke-linejoin="round"/>
<path d="M216.646 123.97C202.798 114.947 187.92 108.077 173.477 104.958C167.87 105.459 158.162 106.648 152.417 108.987C143.977 112.44 141.521 113.461 141.521 113.461C141.521 113.461 141.481 111.475 141.085 109.154C140.689 106.833 128.108 116.321 128.108 116.321C128.108 116.321 128.108 116.321 126.999 113.35C125.889 110.379 111.288 126.198 111.288 126.198L109.802 121.909C109.802 121.909 103.185 127.98 103.66 135.927C104.156 143.873 113.289 139.77 113.289 139.77C111.387 132.492 122.581 123.71 122.581 123.71L125.117 127.33L131.02 120.944L132.189 126.903L138.43 119.514L140.946 122.132L148.593 114.056L149.049 119.681L156.736 113.926L159.609 116.878L163.096 113.183L158.658 122.54L174.19 119.978L159.787 126.495L186.731 128.407L168.722 131.341L183.601 132.121L170.228 137.301L180.153 138.47C180.153 138.47 162.897 143.372 166.424 143.316C169.97 143.26 185.542 143.038 191.545 142.276C197.548 141.515 188.633 137.672 189.683 137.004C190.733 136.317 193.209 136.614 197.449 135.555C201.689 134.497 205.948 135.425 208.405 134.404C210.861 133.365 201.609 130.19 203.016 129.837C204.423 129.484 213.298 130.672 215.062 129.985C216.825 129.299 212.526 126.365 211.079 125.4C209.693 124.416 213.16 124.675 216.646 123.97Z" fill="#263238" stroke="#263238" stroke-width="0.0533837" stroke-miterlimit="10" stroke-linecap="round" stroke-linejoin="round"/>
<path d="M259.194 163.13C259.194 163.13 242.018 152.102 243.464 154.404C244.91 156.706 241.027 157.096 241.027 157.096C241.027 157.096 226.287 144.044 227.02 145.696C227.753 147.349 226.386 149.688 226.386 149.688C226.386 149.688 206.713 138.363 207.446 139.681C208.179 140.999 209.982 143.617 209.982 143.617L197.204 142.15L216.163 153.142L206.971 153.94C206.971 153.94 228.744 164.56 241.602 170.668C254.459 176.777 270.903 186.487 270.903 186.487C270.903 186.487 277.5 199.335 277.243 205.294C276.985 211.273 274.727 224.251 274.727 224.251C274.727 224.251 285.782 228.725 288.258 228.688C290.735 228.651 287.446 222.06 287.446 222.06C287.446 222.06 306.762 234.054 312.072 233.627C317.381 233.218 322.79 239.438 312.924 221.67C303.077 203.958 267.06 167.66 259.194 163.13Z" fill="#263238" stroke="#263238" stroke-width="0.533837" stroke-miterlimit="10" stroke-linecap="round" stroke-linejoin="round"/>
</svg>
