<svg width="15" height="20" viewBox="0 0 15 20" fill="none" xmlns="http://www.w3.org/2000/svg">
<g clip-path="url(#clip0_2984_9682)">
<path d="M11.2158 14.3362C11.58 14.3568 11.926 14.2613 12.2256 14.0857L13.4782 18.0112L10.9085 17.0351L9.37958 19.3181L8.14764 15.4571C8.35425 15.3899 8.55311 15.2866 8.72873 15.142L9.50092 14.5118C9.70242 14.3465 9.95808 14.2665 10.2163 14.2794L11.2132 14.3362H11.2158ZM5.66314 14.5144C5.4617 14.3491 5.21118 14.2665 4.94776 14.282L3.95086 14.3387C3.58671 14.3594 3.24063 14.2639 2.94105 14.0882L1.68847 18.0138L4.25819 17.0377L5.78711 19.3207L7.01902 15.4597C6.81242 15.3925 6.61355 15.2892 6.43793 15.1446L5.66573 14.5144H5.66314ZM14.5965 8.97208C14.7747 9.43175 14.6042 9.95608 14.191 10.2221L13.3517 10.7618C12.9694 11.0072 12.6957 11.3842 12.5794 11.8233L12.3238 12.7866C12.1973 13.2618 11.7452 13.5847 11.2598 13.5588L10.2628 13.502C9.80825 13.4788 9.36667 13.6208 9.01283 13.9075L8.24062 14.5377C7.85838 14.8476 7.3057 14.8476 6.92605 14.5377L6.15384 13.9075C5.82843 13.6415 5.42554 13.4994 5.00716 13.4994C4.97358 13.4994 4.94001 13.4994 4.90385 13.502L3.90695 13.5588C3.41883 13.5847 2.96946 13.2618 2.84291 12.7866L2.58722 11.8208C2.47101 11.3817 2.19725 11.0046 1.81502 10.7592L0.975663 10.2195C0.562442 9.9535 0.391988 9.42658 0.57019 8.9695L0.931758 8.03974C1.09705 7.61618 1.09705 7.15132 0.931758 6.72776L0.57019 5.79802C0.391988 5.3383 0.562442 4.81402 0.975663 4.54802L1.81502 4.00825C2.19725 3.7629 2.47101 3.38583 2.58722 2.94678L2.84291 1.98347C2.96946 1.50826 3.42142 1.18285 3.90695 1.21126L4.90385 1.26808C5.36097 1.2939 5.80002 1.14928 6.15384 0.8626L6.92605 0.232437C7.3057 -0.0774789 7.86097 -0.0774789 8.24062 0.232437L9.01283 0.8626C9.36408 1.14928 9.80825 1.2939 10.2628 1.26808L11.2598 1.21126C11.7452 1.18543 12.1973 1.50826 12.3238 1.98347L12.5794 2.94678C12.6957 3.38583 12.9694 3.7629 13.3517 4.00825L14.191 4.54802C14.6042 4.81402 14.7747 5.34088 14.5965 5.79802L14.2349 6.72776C14.0696 7.15132 14.0696 7.61618 14.2349 8.03974L14.5965 8.9695V8.97208ZM12.2772 7.38633C12.2772 4.79853 10.1724 2.69368 7.58462 2.69368C4.99682 2.69368 2.89198 4.79853 2.89198 7.38633C2.89198 8.892 3.60737 10.2298 4.71273 11.0898C5.19569 11.4643 5.75353 11.7484 6.36046 11.9111C6.75043 12.017 7.16107 12.079 7.58462 12.079C8.00817 12.079 8.41882 12.017 8.80879 11.9111C9.41575 11.7458 9.97358 11.4643 10.4565 11.0898C11.5619 10.2298 12.2772 8.892 12.2772 7.38633ZM9.08775 6.36619C9.08775 5.53717 8.41365 4.8631 7.58462 4.8631C6.7556 4.8631 6.08153 5.53717 6.08153 6.36619C6.08153 7.19522 6.7556 7.86928 7.58462 7.86928C8.41365 7.86928 9.08775 7.19522 9.08775 6.36619ZM8.11665 8.12497H7.0526C5.893 8.12497 4.93226 8.97208 4.74631 10.08C5.4617 10.8316 6.46634 11.3042 7.58462 11.3042C8.70291 11.3042 9.70758 10.8316 10.4229 10.08C10.2396 8.97208 9.27625 8.12497 8.11665 8.12497Z" fill="#E6D000"/>
</g>
<defs>
<clipPath id="clip0_2984_9682">
<rect width="14.1667" height="20" fill="white" transform="translate(0.5)"/>
</clipPath>
</defs>
</svg>
