<svg width="189" height="43" viewBox="0 0 189 43" fill="none" xmlns="http://www.w3.org/2000/svg">
<path d="M18.8273 17C18.8273 17 14.3035 20.806 8.9092 24.1177C3.51232 27.4319 1.09061 30.6145 1.11919 31.5715C1.15037 32.5285 4.32042 31.664 4.32042 31.664C4.32042 31.664 -0.598353 34.2014 1.53753 34.1453C3.67342 34.0893 4.59325 32.0147 4.59325 32.0147C4.59325 32.0147 3.95924 33.8337 5.54686 33.3345C7.13449 32.8353 6.38615 33.1299 11.3933 28.1575C16.4004 23.1851 20.867 19.9878 20.867 19.9878L18.8273 17Z" fill="#E6D000" stroke="#263238" stroke-width="0.533837" stroke-miterlimit="10" stroke-linecap="round" stroke-linejoin="round"/>
<path d="M4.3233 31.6645C4.3233 31.6645 1.15066 32.5314 1.12207 31.572C1.11168 31.2773 1.33774 30.7708 1.80805 30.1158C1.86002 30.2278 1.98994 30.3106 2.25758 30.3277C3.23198 30.3861 4.21937 29.6166 4.21937 29.6166C4.21937 29.6166 5.50818 27.5468 5.69006 27.7246C5.87195 27.9023 6.00967 28.0338 7.08541 27.5273C8.16114 27.0208 8.53012 27.1572 9.14854 26.4267C9.76436 25.6961 12.2224 23.2099 12.2172 23.4705C12.2121 23.731 12.1133 24.1207 12.4901 23.8236C12.8668 23.5241 17.0633 19.7156 17.6791 19.1141C18.2923 18.5151 19.1914 17.5703 19.1914 17.5703L19.9215 18.6003L20.6672 19.6937C20.2801 19.9469 14.2908 23.8528 13.9738 23.9746C13.6464 24.1012 15.2808 23.6458 14.5714 24.3325C13.862 25.0192 8.24689 27.6759 8.09878 28.0655C7.95327 28.4551 9.44475 28.1726 8.60027 28.6815C7.75579 29.1905 4.85338 30.5395 5.21975 30.8074C5.58613 31.0728 6.14219 31.1264 7.17115 30.6637C7.82855 30.3691 9.80074 29.2075 11.1441 28.4064C6.41502 33.1183 7.10619 32.848 5.54455 33.3374C3.95693 33.8366 4.59094 32.0176 4.59094 32.0176C4.59094 32.0176 3.6737 34.0923 1.53522 34.1483C-0.595469 34.2019 4.3233 31.6645 4.3233 31.6645Z" fill="#263238" stroke="#263238" stroke-width="0.533837" stroke-miterlimit="10" stroke-linecap="round" stroke-linejoin="round"/>
<path d="M39.5239 11.3167C39.5239 11.3167 38.8015 21.7071 27.1919 21.7826C20.8024 21.824 16.7125 16.8419 18.4924 12.1714C20.2723 7.50093 27.0879 1.64458 32.9161 1.0626C38.7443 0.478178 41.8157 4.13322 42.3223 5.90108C42.8316 7.67138 41.891 9.00336 39.5239 11.3167Z" fill="white" stroke="#263238" stroke-width="0.533837" stroke-miterlimit="10" stroke-linecap="round" stroke-linejoin="round"/>
<path d="M29.4528 1.95392C30.053 1.79564 30.4376 1.69824 30.4376 1.69824C30.4376 1.69824 27.4572 5.46773 30.8169 5.65036C30.8169 5.65036 27.1948 6.85085 24.3365 8.54079C22.8294 9.43203 21.1535 9.61223 19.9062 9.58301C22.0265 6.51968 25.7033 3.44906 29.4528 1.95392Z" fill="#E6D000" stroke="#263238" stroke-width="0.533837" stroke-miterlimit="10" stroke-linecap="round" stroke-linejoin="round"/>
<path d="M41.848 6.81647C41.848 6.81647 43.3681 7.53482 43.5474 7.97313C43.7267 8.41144 41.9156 8.38466 41.2296 7.80755C40.5436 7.23044 41.5622 7.29131 41.5622 7.29131C41.5622 7.29131 41.4843 6.41955 41.848 6.81647Z" fill="#263238" stroke="#263238" stroke-width="0.106767" stroke-miterlimit="10" stroke-linecap="round" stroke-linejoin="round"/>
<path d="M37.7403 5.44773C37.7351 5.78377 38.0417 6.06136 38.4263 6.06623C38.8108 6.0711 39.1278 5.80325 39.133 5.46721C39.1382 5.13117 38.8316 4.85357 38.4471 4.8487C38.0625 4.84383 37.7455 5.11169 37.7403 5.44773Z" fill="#263238" stroke="#263238" stroke-width="0.533837" stroke-miterlimit="10" stroke-linecap="round" stroke-linejoin="round"/>
<path d="M26.0312 3.75035C27.8475 2.56691 29.7989 1.66593 31.6932 1.25684C32.4285 1.32258 33.7017 1.47843 34.4553 1.78525C35.5622 2.23817 35.8844 2.3721 35.8844 2.3721C35.8844 2.3721 35.8896 2.11155 35.9416 1.80716C35.9935 1.50278 37.6435 2.7471 37.6435 2.7471C37.6435 2.7471 37.6435 2.7471 37.789 2.35749C37.9345 1.96788 39.8495 4.04256 39.8495 4.04256L40.0444 3.48006C40.0444 3.48006 40.9123 4.27633 40.8499 5.31854C40.785 6.36075 39.5871 5.8226 39.5871 5.8226C39.8366 4.86805 38.3685 3.71626 38.3685 3.71626L38.0359 4.1911L37.2615 3.35343L37.1082 4.13509L36.2897 3.16594L35.9597 3.50928L34.9568 2.45002L34.897 3.18785L33.8888 2.43298L33.512 2.82016L33.0547 2.33557L33.6368 3.56285L31.5996 3.22681L33.4887 4.08152L29.9548 4.33233L32.3168 4.71707L30.3654 4.81935L32.1193 5.49873L30.8175 5.65214C30.8175 5.65214 33.0807 6.295 32.6182 6.28769C32.1531 6.28039 30.1107 6.25117 29.3234 6.15133C28.5361 6.05149 29.7054 5.54743 29.5677 5.45977C29.43 5.36967 29.1052 5.40864 28.5491 5.26984C27.993 5.13104 27.4344 5.25279 27.1122 5.11886C26.79 4.9825 28.0034 4.5661 27.8189 4.51983C27.6345 4.47357 26.4704 4.62941 26.2391 4.53932C26.0079 4.44922 26.5717 4.06448 26.7614 3.93785C26.9433 3.80879 26.4886 3.84288 26.0312 3.75035Z" fill="#263238" stroke="#263238" stroke-width="0.0533837" stroke-miterlimit="10" stroke-linecap="round" stroke-linejoin="round"/>
<path d="M20.4508 8.88637C20.4508 8.88637 22.7036 7.43994 22.5139 7.74189C22.3243 8.04384 22.8335 8.09497 22.8335 8.09497C22.8335 8.09497 24.7668 6.38312 24.6706 6.59984C24.5745 6.81656 24.7538 7.12338 24.7538 7.12338C24.7538 7.12338 27.334 5.63799 27.2378 5.81088C27.1417 5.98377 26.9052 6.32711 26.9052 6.32711L28.5812 6.13474L26.0945 7.5763L27.3002 7.68101C27.3002 7.68101 24.4446 9.07387 22.7582 9.87501C21.0718 10.6762 18.9152 11.9497 18.9152 11.9497C18.9152 11.9497 18.0499 13.6348 18.0837 14.4164C18.1174 15.2005 18.4137 16.9026 18.4137 16.9026C18.4137 16.9026 16.9638 17.4895 16.639 17.4846C16.3142 17.4797 16.7455 16.6153 16.7455 16.6153C16.7455 16.6153 14.2121 18.1883 13.5157 18.1323C12.8193 18.0788 12.1099 18.8945 13.404 16.5642C14.6954 14.2411 19.4192 9.48053 20.4508 8.88637Z" fill="#263238" stroke="#263238" stroke-width="0.533837" stroke-miterlimit="10" stroke-linecap="round" stroke-linejoin="round"/>
<path d="M33.912 35.5576H22.584V19.5496H33.912V22.5496H25.992V25.9336H33.744V28.9336H25.992V32.5576H33.912V35.5576ZM51.5042 35.5576H47.6162L46.6322 32.8456H39.7682L38.7602 35.5576H34.8722L41.0642 19.5496H45.3362L51.5042 35.5576ZM45.6962 29.8456L43.2002 22.9576L40.7042 29.8456H45.6962ZM65.9424 35.5576H62.0304L58.8864 29.8696H56.3904V35.5576H52.9824V19.5496H60.4704C63.8064 19.5496 65.8464 21.7336 65.8464 24.7096C65.8464 27.5416 64.0704 29.0536 62.3424 29.4616L65.9424 35.5576ZM59.9664 26.8696C61.3344 26.8696 62.3664 26.0536 62.3664 24.7096C62.3664 23.3656 61.3344 22.5496 59.9664 22.5496H56.3904V26.8696H59.9664ZM75.2979 35.5576H71.8659V22.5496H67.1859V19.5496H79.9539V22.5496H75.2979V35.5576ZM96.5387 35.5576H93.1067V28.8376H85.5467V35.5576H82.1387V19.5496H85.5467V25.8376H93.1067V19.5496H96.5387V35.5576ZM114.522 35.5576H105.834V19.5496H114.258C117.306 19.5496 118.866 21.4936 118.866 23.6296C118.866 25.6456 117.618 26.9896 116.106 27.3016C117.81 27.5656 119.178 29.2216 119.178 31.2376C119.178 33.6376 117.57 35.5576 114.522 35.5576ZM113.514 25.9576C114.666 25.9576 115.386 25.2376 115.386 24.2296C115.386 23.2216 114.666 22.4776 113.514 22.4776H109.242V25.9576H113.514ZM113.634 32.6056C114.93 32.6056 115.698 31.9096 115.698 30.7576C115.698 29.7496 114.978 28.8856 113.634 28.8856H109.242V32.6056H113.634ZM125.156 35.5576H121.748V19.5496H125.156V35.5576ZM141.294 35.5576H137.382L134.238 29.8696H131.742V35.5576H128.334V19.5496H135.822C139.158 19.5496 141.198 21.7336 141.198 24.7096C141.198 27.5416 139.422 29.0536 137.694 29.4616L141.294 35.5576ZM135.318 26.8696C136.686 26.8696 137.718 26.0536 137.718 24.7096C137.718 23.3656 136.686 22.5496 135.318 22.5496H131.742V26.8696H135.318ZM150.068 35.5576H143.756V19.5496H150.068C155.084 19.5496 158.564 22.7416 158.564 27.5656C158.564 32.3896 155.084 35.5576 150.068 35.5576ZM150.068 32.5576C153.236 32.5576 155.084 30.2776 155.084 27.5656C155.084 24.7336 153.356 22.5496 150.068 22.5496H147.164V32.5576H150.068ZM172.31 35.5576H160.982V19.5496H172.31V22.5496H164.39V25.9336H172.142V28.9336H164.39V32.5576H172.31V35.5576ZM187.935 35.5576H184.023L180.879 29.8696H178.383V35.5576H174.975V19.5496H182.463C185.799 19.5496 187.839 21.7336 187.839 24.7096C187.839 27.5416 186.063 29.0536 184.335 29.4616L187.935 35.5576ZM181.959 26.8696C183.327 26.8696 184.359 26.0536 184.359 24.7096C184.359 23.3656 183.327 22.5496 181.959 22.5496H178.383V26.8696H181.959Z" fill="black" fill-opacity="0.75"/>
</svg>
