<svg width="212" height="171" viewBox="0 0 212 171" fill="none" xmlns="http://www.w3.org/2000/svg">
<path d="M35.2569 118.686H34.6208C34.5365 118.685 34.4556 118.652 34.396 118.592C34.3364 118.533 34.3028 118.452 34.3027 118.368V117.732C34.3028 117.648 34.3364 117.567 34.396 117.507C34.4556 117.448 34.5365 117.414 34.6208 117.414H35.2569C35.3412 117.414 35.4221 117.448 35.4817 117.507C35.5414 117.567 35.5749 117.648 35.575 117.732V118.368C35.5749 118.452 35.5414 118.533 35.4817 118.592C35.4221 118.652 35.3412 118.685 35.2569 118.686Z" fill="#CCCCCC"/>
<path d="M34.9506 117.985C34.9385 117.985 34.9264 117.983 34.9144 117.981C34.887 117.977 34.8607 117.967 34.8372 117.952C34.8136 117.937 34.7932 117.918 34.7772 117.895C34.7611 117.872 34.7497 117.846 34.7435 117.819C34.7374 117.792 34.7366 117.764 34.7413 117.737L36.8384 105.542C36.8482 105.487 36.8795 105.438 36.9253 105.406C36.9712 105.373 37.0278 105.361 37.083 105.37C37.1382 105.38 37.1874 105.411 37.2199 105.456C37.2523 105.502 37.2655 105.558 37.2563 105.614L35.1593 117.808C35.1508 117.858 35.1252 117.902 35.0871 117.935C35.0489 117.967 35.0006 117.984 34.9506 117.985Z" fill="#CCCCCC"/>
<path d="M34.9511 117.985C34.9011 117.984 34.8528 117.967 34.8146 117.935C34.7764 117.902 34.7509 117.858 34.7424 117.808L32.6454 105.614C32.6363 105.558 32.6494 105.502 32.6819 105.456C32.7143 105.411 32.7635 105.38 32.8187 105.37C32.8739 105.361 32.9306 105.373 32.9764 105.406C33.0223 105.438 33.0535 105.487 33.0634 105.542L35.1603 117.737C35.1651 117.764 35.1643 117.792 35.1582 117.819C35.152 117.846 35.1406 117.872 35.1245 117.895C35.1085 117.918 35.0881 117.937 35.0645 117.952C35.041 117.967 35.0147 117.977 34.9873 117.981C34.9753 117.983 34.9632 117.985 34.9511 117.985Z" fill="#CCCCCC"/>
<path d="M39.4642 103.455C39.6686 102.007 38.8953 100.702 37.7367 100.538C36.5782 100.375 35.4734 101.416 35.269 102.863C35.0966 104.083 35.6211 105.2 36.4842 105.619L36.4351 105.967L37.4839 106.115L37.533 105.767C38.4784 105.603 39.2918 104.675 39.4642 103.455Z" fill="#FF6584"/>
<path d="M34.5944 102.796C34.3434 101.356 33.2057 100.351 32.053 100.552C30.9003 100.753 30.1695 102.082 30.4204 103.522C30.6321 104.737 31.475 105.638 32.4251 105.771L32.4855 106.118L33.529 105.936L33.4686 105.59C34.3178 105.143 34.806 104.01 34.5944 102.796Z" fill="#CCCCCC"/>
<path d="M34.9386 117.732C34.8824 117.732 34.8284 117.709 34.7887 117.669C34.7489 117.63 34.7266 117.576 34.7266 117.52V104.983C34.7263 104.955 34.7316 104.928 34.7422 104.902C34.7527 104.876 34.7683 104.852 34.788 104.832C34.8077 104.812 34.8312 104.797 34.857 104.786C34.8829 104.775 34.9106 104.77 34.9386 104.77C34.9666 104.77 34.9943 104.775 35.0202 104.786C35.046 104.797 35.0695 104.812 35.0892 104.832C35.1089 104.852 35.1245 104.876 35.135 104.902C35.1456 104.928 35.1509 104.955 35.1506 104.983V117.52C35.1506 117.576 35.1283 117.63 35.0885 117.669C35.0488 117.709 34.9948 117.732 34.9386 117.732Z" fill="#CCCCCC"/>
<path d="M36.9262 102.575C36.9262 101.114 35.9778 99.9287 34.8078 99.9287C33.6378 99.9287 32.6895 101.114 32.6895 102.575C32.6895 103.808 33.365 104.84 34.2782 105.135V105.486H35.3374V105.135C36.2506 104.84 36.9262 103.808 36.9262 102.575Z" fill="#D08D7A"/>
<path d="M133.681 170.468L133.638 170.464L67.3197 164.307L7.01396 169.906C6.18803 169.982 5.35518 169.886 4.56865 169.623C3.78212 169.359 3.05921 168.935 2.44615 168.377C1.83308 167.818 1.34335 167.138 1.00825 166.38C0.673153 165.621 0.500063 164.801 0.50005 163.972V20.6344C0.493962 19.1477 1.04667 17.7129 2.04874 16.6141C3.05081 15.5153 4.42919 14.8326 5.91096 14.7012L67.3197 9L67.3621 9.00403L133.681 15.1609L193.986 9.56222C194.812 9.48554 195.645 9.58193 196.431 9.84524C197.218 10.1085 197.941 10.533 198.554 11.0914C199.167 11.6498 199.657 12.3299 199.992 13.0882C200.327 13.8465 200.5 14.6664 200.5 15.4954V158.833C200.506 160.32 199.953 161.755 198.951 162.854C197.949 163.953 196.571 164.635 195.089 164.767L133.681 170.468ZM67.3197 163.386L67.3621 163.39L133.681 169.547L195.004 163.854C196.258 163.743 197.424 163.165 198.272 162.235C199.12 161.305 199.588 160.091 199.583 158.833V15.4954C199.583 14.7939 199.436 14.1002 199.153 13.4585C198.869 12.8169 198.455 12.2414 197.936 11.7689C197.417 11.2964 196.806 10.9372 196.14 10.7144C195.475 10.4916 194.77 10.4101 194.071 10.4749L133.681 16.0817L133.638 16.0777L67.3197 9.92077L5.99581 15.6139C4.74199 15.7252 3.57569 16.3029 2.72778 17.2326C1.87988 18.1624 1.4122 19.3764 1.41734 20.6344V163.972C1.41735 164.674 1.5638 165.368 1.84735 166.009C2.13089 166.651 2.54528 167.226 3.06402 167.699C3.58277 168.172 4.19446 168.531 4.85998 168.753C5.52551 168.976 6.23023 169.058 6.9291 168.993L67.3197 163.386Z" fill="black" fill-opacity="0.75"/>
<path d="M94.3864 34.0108C96.4132 31.1114 98.8692 22.5881 95.966 20.5612C93.0629 18.5343 85.9 23.7713 83.8732 26.6707C82.9 28.064 82.5203 29.7866 82.8176 31.4596C83.1149 33.1327 84.0649 34.6192 85.4588 35.5924C86.8526 36.5655 88.5761 36.9456 90.2502 36.649C91.9244 36.3524 93.4122 35.4035 94.3864 34.0108Z" fill="#39B51B" fill-opacity="0.5"/>
<path d="M80.9981 41.9742C80.9822 41.963 80.9713 41.946 80.9679 41.9269C80.9645 41.9077 80.9689 41.888 80.98 41.8721L89.5527 29.6085C89.5638 29.5925 89.5808 29.5817 89.6 29.5783C89.6191 29.5749 89.6388 29.5792 89.6548 29.5904C89.6707 29.6015 89.6816 29.6185 89.685 29.6376C89.6884 29.6568 89.684 29.6765 89.6729 29.6924L81.1002 41.956C81.0891 41.972 81.0721 41.9828 81.0529 41.9862C81.0338 41.9896 81.0141 41.9853 80.9981 41.9742Z" fill="white"/>
<path d="M88.0115 31.9413C88.0028 31.9353 87.9956 31.9276 87.9903 31.9185C87.9849 31.9095 87.9816 31.8994 87.9805 31.8889L87.393 26.2938C87.3909 26.2745 87.3967 26.2552 87.4089 26.2401C87.4212 26.2249 87.4389 26.2153 87.4583 26.2133C87.4776 26.2113 87.497 26.217 87.5121 26.2292C87.5272 26.2415 87.5368 26.2592 87.5389 26.2785L88.1264 31.8736C88.1279 31.8876 88.1253 31.9017 88.119 31.9142C88.1126 31.9268 88.1028 31.9372 88.0907 31.9444C88.0786 31.9515 88.0647 31.955 88.0507 31.9545C88.0366 31.9539 88.023 31.9494 88.0115 31.9413Z" fill="white"/>
<path d="M86.6055 33.9526C86.5936 33.9443 86.5845 33.9327 86.5792 33.9192C86.574 33.9057 86.5728 33.8909 86.5759 33.8768C86.5791 33.8626 86.5863 33.8497 86.5968 33.8397C86.6072 33.8297 86.6204 33.823 86.6347 33.8204L89.5527 33.303C89.5622 33.3012 89.5719 33.3014 89.5814 33.3034C89.5908 33.3054 89.5998 33.3093 89.6077 33.3148C89.6156 33.3204 89.6224 33.3274 89.6276 33.3355C89.6328 33.3436 89.6364 33.3527 89.6381 33.3622C89.6397 33.3717 89.6395 33.3815 89.6375 33.3909C89.6354 33.4003 89.6314 33.4093 89.6259 33.4172C89.6203 33.4251 89.6132 33.4318 89.6051 33.437C89.5969 33.4421 89.5878 33.4456 89.5783 33.4473L86.6603 33.9647C86.6508 33.9664 86.6411 33.9662 86.6317 33.9641C86.6223 33.9621 86.6134 33.9582 86.6055 33.9526Z" fill="white"/>
<path d="M75.3594 37.9194C75.7667 37.3396 76.3875 36.9449 77.0857 36.8219C77.7838 36.6989 78.5023 36.8577 79.0835 37.2634C79.6646 37.6692 80.061 38.2888 80.1856 38.9862C80.3103 39.6837 80.153 40.402 79.7484 40.9838" fill="#1B847A"/>
<path d="M77.5544 39.4511C77.5386 39.4402 77.5279 39.4234 77.5245 39.4045C77.5212 39.3856 77.5255 39.3662 77.5365 39.3505L78.3445 38.1946C78.3555 38.179 78.3723 38.1684 78.3911 38.1651C78.4099 38.1619 78.4293 38.1662 78.445 38.1771C78.4606 38.188 78.4713 38.2047 78.4747 38.2235C78.4781 38.2423 78.4739 38.2617 78.4631 38.2774L77.6551 39.4333C77.6441 39.449 77.6273 39.4597 77.6084 39.4631C77.5895 39.4664 77.5701 39.4621 77.5544 39.4511Z" fill="white"/>
<path d="M77.8315 39.0547C77.8174 39.0448 77.8072 39.0302 77.8029 39.0134L77.518 37.906C77.5156 37.8968 77.515 37.8872 77.5163 37.8778C77.5176 37.8684 77.5208 37.8593 77.5256 37.8511C77.5304 37.8429 77.5368 37.8357 77.5444 37.83C77.5521 37.8242 77.5607 37.8201 77.57 37.8177C77.5792 37.8153 77.5888 37.8148 77.5982 37.8162C77.6076 37.8175 77.6167 37.8207 77.6249 37.8256C77.6331 37.8304 77.6403 37.8368 77.6459 37.8445C77.6516 37.8521 77.6558 37.8608 77.6581 37.87L77.9431 38.9774C77.9468 38.9917 77.946 39.0068 77.9408 39.0207C77.9357 39.0345 77.9264 39.0464 77.9142 39.0549C77.9021 39.0633 77.8877 39.0678 77.8729 39.0677C77.8581 39.0677 77.8437 39.0631 77.8315 39.0547Z" fill="white"/>
<path d="M82.1211 42.6404C82.3221 42.3515 82.5781 42.1051 82.8745 41.9152C83.1709 41.7253 83.5018 41.5957 83.8484 41.5339C84.195 41.472 84.5504 41.4791 84.8942 41.5547C85.238 41.6302 85.5636 41.7729 85.8522 41.9744C86.1408 42.1759 86.3868 42.4323 86.5761 42.7289C86.7654 43.0256 86.8943 43.3566 86.9554 43.7032C87.0165 44.0497 87.0087 44.4048 86.9322 44.7483C86.8558 45.0917 86.7124 45.4167 86.5101 45.7047" fill="#1B847A"/>
<path d="M84.3161 44.1722C84.3003 44.1612 84.2896 44.1444 84.2863 44.1255C84.2829 44.1067 84.2872 44.0872 84.2982 44.0715L85.1062 42.9157C85.1172 42.8999 85.1339 42.8892 85.1528 42.8859C85.1717 42.8825 85.1912 42.8868 85.2069 42.8978C85.2226 42.9088 85.2334 42.9256 85.2367 42.9444C85.2401 42.9633 85.2358 42.9828 85.2248 42.9985L84.4168 44.1543C84.4058 44.1701 84.389 44.1808 84.3701 44.1841C84.3513 44.1875 84.3318 44.1832 84.3161 44.1722Z" fill="white"/>
<path d="M84.5931 43.7747C84.5789 43.7648 84.5688 43.7502 84.5645 43.7335L84.2795 42.6261C84.2749 42.6075 84.2777 42.5879 84.2875 42.5715C84.2973 42.5551 84.3132 42.5432 84.3317 42.5384C84.3502 42.5337 84.3699 42.5364 84.3863 42.5461C84.4028 42.5558 84.4148 42.5716 84.4197 42.5901L84.7047 43.6975C84.7083 43.7118 84.7075 43.7269 84.7024 43.7407C84.6972 43.7545 84.6879 43.7665 84.6758 43.7749C84.6636 43.7833 84.6492 43.7878 84.6344 43.7878C84.6196 43.7877 84.6052 43.7832 84.5931 43.7747Z" fill="white"/>
<path d="M135.969 97.2561C137.599 98.7527 139.219 100.26 140.828 101.778C140.415 101.801 139.987 101.819 139.546 101.833C138.925 101.854 138.278 101.863 137.599 101.863C130.153 101.863 126.374 100.641 122.723 99.4586C119.256 98.3378 115.981 97.279 109.257 97.279C102.531 97.279 99.2563 98.3378 95.7913 99.4586C92.1381 100.641 88.3589 101.863 80.9128 101.863C73.4644 101.863 69.6873 100.641 66.0343 99.4586C62.6472 98.363 59.4435 97.3271 53.027 97.2813C52.8756 97.279 52.7243 97.279 52.5684 97.279V92.6953C52.722 92.6953 52.8756 92.6953 53.027 92.6976C60.1728 92.7457 63.8695 93.9421 67.4469 95.0972C70.9143 96.2202 74.1891 97.279 80.9128 97.279C87.6365 97.279 90.9113 96.2202 94.3786 95.0972C98.0318 93.9169 101.809 92.6953 109.257 92.6953C116.703 92.6953 120.48 93.9169 124.133 95.0972C127.03 96.0345 129.793 96.9284 134.545 97.1965C135.001 97.224 135.473 97.2423 135.969 97.2561Z" fill="#D08D7A"/>
<path d="M194.291 97.279V101.863C186.842 101.863 183.065 100.641 179.412 99.4586C175.945 98.3378 172.67 97.279 165.946 97.279C159.22 97.279 155.946 98.3378 152.478 99.4586C152.29 99.5204 152.1 99.58 151.909 99.6419C151.584 99.7473 151.254 99.8527 150.919 99.9559C149.653 98.716 148.382 97.4868 147.107 96.2683C147.463 96.1812 147.807 96.0895 148.146 95.9956C149.158 95.716 150.105 95.4089 151.068 95.0972C154.721 93.9169 158.498 92.6953 165.946 92.6953C173.395 92.6953 177.172 93.9169 180.825 95.0972C184.292 96.2202 187.567 97.279 194.291 97.279Z" fill="#D08D7A"/>
<path d="M92.9461 62.0282C80.1086 52.6843 66.6014 43.8241 52.803 35.6949L52.1105 35.2869V62.8579H94.0859L92.9461 62.0282ZM53.0278 61.9411V36.8935C66.1543 44.6537 79.0079 53.074 91.2652 61.9411H53.0278ZM157.916 118.69C152.364 112.921 146.668 107.284 140.829 101.778C139.219 100.259 137.599 98.7513 135.97 97.2562C126.024 88.1255 115.751 79.4417 105.151 71.2048L105.027 71.1085H52.1105V119.467H158.663L157.916 118.69ZM53.0278 118.55V72.0253H104.713C114.934 79.9711 124.878 88.3615 134.545 97.1966C136.224 98.7299 137.891 100.275 139.547 101.833C145.335 107.269 150.988 112.842 156.505 118.55H53.0278ZM157.916 118.69C152.364 112.921 146.668 107.284 140.829 101.778C139.219 100.259 137.599 98.7513 135.97 97.2562C126.024 88.1255 115.751 79.4417 105.151 71.2048L105.027 71.1085H52.1105V119.467H158.663L157.916 118.69ZM53.0278 118.55V72.0253H104.713C114.934 79.9711 124.878 88.3615 134.545 97.1966C136.224 98.7299 137.891 100.275 139.547 101.833C145.335 107.269 150.988 112.842 156.505 118.55H53.0278ZM92.9461 62.0282C80.1086 52.6843 66.6014 43.8241 52.803 35.6949L52.1105 35.2869V62.8579H94.0859L92.9461 62.0282ZM53.0278 61.9411V36.8935C66.1543 44.6537 79.0079 53.074 91.2652 61.9411H53.0278ZM92.9461 62.0282C80.1086 52.6843 66.6014 43.8241 52.803 35.6949L52.1105 35.2869V62.8579H94.0859L92.9461 62.0282ZM53.0278 61.9411V36.8935C66.1543 44.6537 79.0079 53.074 91.2652 61.9411H53.0278ZM157.916 118.69C152.364 112.921 146.668 107.284 140.829 101.778C139.219 100.259 137.599 98.7513 135.97 97.2562C126.024 88.1255 115.751 79.4417 105.151 71.2048L105.027 71.1085H52.1105V119.467H158.663L157.916 118.69ZM53.0278 118.55V72.0253H104.713C114.934 79.9711 124.878 88.3615 134.545 97.1966C136.224 98.7299 137.891 100.275 139.547 101.833C145.335 107.269 150.988 112.842 156.505 118.55H53.0278ZM6.70898 127.717V128.634H42.9375V141.927H6.70898V142.843H43.8548V127.717H6.70898ZM52.1105 151.094V160.383L53.0278 160.298V152.011H194.291V151.094H52.1105ZM194.291 128.634V127.717H52.1105V142.843H194.291V141.927H53.0278V128.634H194.291ZM108.627 61.9411C91.0294 48.3744 72.4448 36.1364 53.0278 25.3289V16.0469L52.1105 16.1317V25.4855L52.8168 26.2616C72.1548 37.0398 90.664 49.2401 108.192 62.7616L108.315 62.8579H194.291V61.9411H108.627ZM42.9375 61.9411H6.70898V62.8579H43.8548V16.8971L42.9375 16.9819V61.9411ZM194.291 71.1085H118.708L119.697 71.9198C129.003 79.5723 138.14 87.6885 147.108 96.2684C148.383 97.4877 149.653 98.7169 150.919 99.956C157.221 106.11 163.4 112.464 169.455 119.02L170.212 119.467H194.291V118.55H170.269C164.28 112.059 158.16 105.757 151.91 99.642C150.66 98.4182 149.406 97.2027 148.147 95.9957C139.373 87.5823 130.411 79.5922 121.263 72.0253H194.291V71.1085ZM6.70898 151.094V152.011H42.9375V161.233L43.8548 161.148V151.094H6.70898ZM6.70898 71.1085V72.0253H42.9375V118.55H6.70898V119.467H43.8548V71.1085H6.70898ZM92.9461 62.0282C80.1086 52.6843 66.6014 43.8241 52.803 35.6949L52.1105 35.2869V62.8579H94.0859L92.9461 62.0282ZM53.0278 61.9411V36.8935C66.1543 44.6537 79.0079 53.074 91.2652 61.9411H53.0278ZM157.916 118.69C152.364 112.921 146.668 107.284 140.829 101.778C139.219 100.259 137.599 98.7513 135.97 97.2562C126.024 88.1255 115.751 79.4417 105.151 71.2048L105.027 71.1085H52.1105V119.467H158.663L157.916 118.69ZM53.0278 118.55V72.0253H104.713C114.934 79.9711 124.878 88.3615 134.545 97.1966C136.224 98.7299 137.891 100.275 139.547 101.833C145.335 107.269 150.988 112.842 156.505 118.55H53.0278ZM92.9461 62.0282C80.1086 52.6843 66.6014 43.8241 52.803 35.6949L52.1105 35.2869V62.8579H94.0859L92.9461 62.0282ZM53.0278 61.9411V36.8935C66.1543 44.6537 79.0079 53.074 91.2652 61.9411H53.0278ZM157.916 118.69C152.364 112.921 146.668 107.284 140.829 101.778C139.219 100.259 137.599 98.7513 135.97 97.2562C126.024 88.1255 115.751 79.4417 105.151 71.2048L105.027 71.1085H52.1105V119.467H158.663L157.916 118.69ZM53.0278 118.55V72.0253H104.713C114.934 79.9711 124.878 88.3615 134.545 97.1966C136.224 98.7299 137.891 100.275 139.547 101.833C145.335 107.269 150.988 112.842 156.505 118.55H53.0278Z" fill="black" fill-opacity="0.1"/>
<path d="M116.938 93.2022C116.938 89.1659 120.212 79.5879 124.25 79.5879C128.289 79.5879 131.563 89.1659 131.563 93.2022C131.563 95.1405 130.793 96.9994 129.421 98.37C128.05 99.7406 126.19 100.511 124.25 100.511C122.311 100.511 120.451 99.7406 119.079 98.37C117.708 96.9994 116.938 95.1405 116.938 93.2022Z" fill="#1B847A"/>
<path d="M124.25 110.983C124.242 110.983 124.234 110.982 124.227 110.979C124.219 110.976 124.213 110.971 124.207 110.966C124.201 110.96 124.197 110.953 124.194 110.946C124.191 110.939 124.189 110.931 124.189 110.923V85.7261C124.189 85.7102 124.196 85.6949 124.207 85.6836C124.218 85.6723 124.234 85.666 124.25 85.666C124.266 85.666 124.281 85.6723 124.292 85.6836C124.303 85.6949 124.31 85.7102 124.31 85.7261V110.923C124.31 110.931 124.308 110.939 124.305 110.946C124.302 110.953 124.298 110.96 124.292 110.966C124.287 110.971 124.28 110.976 124.273 110.979C124.265 110.982 124.257 110.983 124.25 110.983Z" fill="white"/>
<path d="M124.251 90.59C124.244 90.59 124.236 90.5884 124.228 90.5854C124.221 90.5824 124.214 90.578 124.209 90.5724L121.314 87.6797C121.309 87.6742 121.304 87.6675 121.301 87.6602C121.298 87.6529 121.297 87.6451 121.297 87.6372C121.297 87.6293 121.298 87.6215 121.301 87.6142C121.304 87.607 121.309 87.6003 121.314 87.5948C121.32 87.5892 121.327 87.5847 121.334 87.5817C121.341 87.5787 121.349 87.5771 121.357 87.5771C121.365 87.5771 121.373 87.5787 121.38 87.5817C121.387 87.5847 121.394 87.5892 121.4 87.5948L124.294 90.4874C124.302 90.4958 124.308 90.5065 124.31 90.5182C124.313 90.5298 124.312 90.5419 124.307 90.5529C124.302 90.5639 124.295 90.5733 124.285 90.5799C124.275 90.5865 124.263 90.59 124.251 90.59Z" fill="white"/>
<path d="M124.25 95.5983C124.238 95.5983 124.226 95.5948 124.216 95.5882C124.206 95.5816 124.199 95.5722 124.194 95.5612C124.189 95.5502 124.188 95.5381 124.191 95.5265C124.193 95.5148 124.199 95.5041 124.207 95.4957L129.054 90.6514C129.06 90.6458 129.066 90.6414 129.074 90.6384C129.081 90.6353 129.089 90.6338 129.097 90.6338C129.105 90.6338 129.112 90.6353 129.12 90.6384C129.127 90.6414 129.134 90.6458 129.139 90.6514C129.145 90.657 129.149 90.6636 129.152 90.6709C129.155 90.6782 129.157 90.686 129.157 90.6939C129.157 90.7018 129.155 90.7096 129.152 90.7169C129.149 90.7242 129.145 90.7308 129.139 90.7364L124.292 95.5807C124.287 95.5863 124.28 95.5907 124.273 95.5937C124.265 95.5967 124.257 95.5983 124.25 95.5983Z" fill="white"/>
<path d="M157.941 72.5762C157.941 68.5399 161.215 58.9619 165.254 58.9619C169.293 58.9619 172.567 68.5399 172.567 72.5762C172.566 74.5138 171.795 76.3715 170.424 77.7412C169.052 79.1108 167.193 79.8802 165.254 79.8802C163.316 79.8802 161.456 79.1108 160.085 77.7412C158.714 76.3715 157.943 74.5138 157.941 72.5762Z" fill="#39B51B" fill-opacity="0.5"/>
<path d="M165.254 90.3562C165.246 90.3562 165.238 90.3547 165.23 90.3517C165.223 90.3486 165.217 90.3442 165.211 90.3386C165.205 90.3331 165.201 90.3264 165.198 90.3191C165.195 90.3118 165.193 90.304 165.193 90.2961V65.0992C165.193 65.0832 165.2 65.0679 165.211 65.0567C165.222 65.0454 165.238 65.0391 165.254 65.0391C165.269 65.0391 165.285 65.0454 165.296 65.0567C165.307 65.0679 165.314 65.0832 165.314 65.0992V90.2961C165.314 90.304 165.312 90.3118 165.309 90.3191C165.306 90.3264 165.302 90.3331 165.296 90.3386C165.29 90.3442 165.284 90.3486 165.277 90.3517C165.269 90.3547 165.261 90.3562 165.254 90.3562Z" fill="white"/>
<path d="M165.253 69.964C165.245 69.964 165.238 69.9625 165.23 69.9594C165.223 69.9564 165.216 69.952 165.211 69.9464L162.316 67.0538C162.305 67.0425 162.299 67.0272 162.299 67.0113C162.299 66.9953 162.305 66.98 162.316 66.9688C162.328 66.9575 162.343 66.9512 162.359 66.9512C162.375 66.9512 162.39 66.9575 162.401 66.9688L165.296 69.8614C165.304 69.8698 165.31 69.8805 165.312 69.8922C165.315 69.9038 165.313 69.9159 165.309 69.9269C165.304 69.9379 165.297 69.9473 165.287 69.9539C165.277 69.9605 165.265 69.964 165.253 69.964Z" fill="white"/>
<path d="M165.253 74.9711C165.242 74.9711 165.23 74.9675 165.22 74.9609C165.21 74.9543 165.202 74.945 165.198 74.934C165.193 74.923 165.192 74.9109 165.195 74.8992C165.197 74.8876 165.203 74.8769 165.211 74.8685L170.058 70.0242C170.069 70.013 170.085 70.0068 170.101 70.0068C170.117 70.0069 170.132 70.0132 170.143 70.0244C170.154 70.0357 170.161 70.0509 170.161 70.0667C170.161 70.0826 170.154 70.0979 170.143 70.1092L165.296 74.9535C165.29 74.9591 165.284 74.9635 165.276 74.9665C165.269 74.9695 165.261 74.9711 165.253 74.9711Z" fill="white"/>
<path d="M68.1582 74.6387C68.1582 70.6024 71.4323 61.0244 75.471 61.0244C79.5098 61.0244 82.7839 70.6024 82.7839 74.6387C82.7839 76.5771 82.0134 78.436 80.642 79.8066C79.2706 81.1772 77.4105 81.9472 75.471 81.9472C73.5315 81.9472 71.6715 81.1772 70.3001 79.8066C68.9287 78.436 68.1582 76.5771 68.1582 74.6387Z" fill="#39B51B" fill-opacity="0.5"/>
<path d="M75.4722 92.4187C75.4643 92.4187 75.4565 92.4172 75.4492 92.4142C75.4419 92.4111 75.4353 92.4067 75.4297 92.4011C75.4241 92.3956 75.4197 92.3889 75.4167 92.3816C75.4137 92.3743 75.4121 92.3665 75.4121 92.3586V67.1617C75.4121 67.1457 75.4184 67.1304 75.4297 67.1192C75.441 67.1079 75.4563 67.1016 75.4722 67.1016C75.4882 67.1016 75.5035 67.1079 75.5148 67.1192C75.526 67.1304 75.5324 67.1457 75.5324 67.1617V92.3587C75.5324 92.3665 75.5308 92.3744 75.5278 92.3816C75.5248 92.3889 75.5203 92.3956 75.5148 92.4011C75.5092 92.4067 75.5025 92.4111 75.4953 92.4142C75.488 92.4172 75.4801 92.4187 75.4722 92.4187Z" fill="white"/>
<path d="M75.4721 72.0265C75.4642 72.0265 75.4564 72.025 75.4491 72.0219C75.4418 72.0189 75.4352 72.0145 75.4296 72.0089L72.5352 69.1163C72.5296 69.1107 72.5252 69.104 72.5221 69.0968C72.5191 69.0895 72.5176 69.0817 72.5176 69.0738C72.5176 69.0659 72.5191 69.0581 72.5222 69.0508C72.5252 69.0435 72.5296 69.0368 72.5352 69.0313C72.5408 69.0257 72.5474 69.0213 72.5547 69.0182C72.562 69.0152 72.5698 69.0137 72.5777 69.0137C72.5856 69.0137 72.5934 69.0152 72.6007 69.0182C72.608 69.0213 72.6146 69.0257 72.6202 69.0313L75.5146 71.9239C75.5231 71.9323 75.5288 71.943 75.5311 71.9547C75.5334 71.9663 75.5322 71.9784 75.5277 71.9894C75.5231 72.0004 75.5154 72.0098 75.5055 72.0164C75.4956 72.023 75.484 72.0265 75.4721 72.0265Z" fill="white"/>
<path d="M75.4722 77.0337C75.4603 77.0337 75.4487 77.0302 75.4388 77.0236C75.4289 77.017 75.4212 77.0076 75.4167 76.9966C75.4121 76.9857 75.4109 76.9736 75.4133 76.9619C75.4156 76.9503 75.4213 76.9396 75.4297 76.9312L80.2769 72.0869C80.2882 72.0756 80.3035 72.0693 80.3194 72.0693C80.3353 72.0694 80.3506 72.0757 80.3619 72.0869C80.3731 72.0982 80.3795 72.1134 80.3795 72.1294C80.3795 72.1453 80.3732 72.1606 80.362 72.1718L75.5148 77.0161C75.5092 77.0217 75.5026 77.0262 75.4953 77.0292C75.488 77.0322 75.4801 77.0337 75.4722 77.0337Z" fill="white"/>
<path d="M135.627 54.5025C131.474 54.5025 127.414 53.2716 123.96 50.9654C120.507 48.6593 117.815 45.3815 116.226 41.5465C114.636 37.7115 114.22 33.4916 115.03 29.4204C115.841 25.3493 117.841 21.6096 120.778 18.6745C123.715 15.7393 127.457 13.7404 131.53 12.9306C135.604 12.1208 139.826 12.5364 143.664 14.1249C147.501 15.7134 150.781 18.4035 153.088 21.8549C155.396 25.3062 156.628 29.364 156.628 33.5149C156.621 39.0792 154.407 44.4138 150.47 48.3484C146.533 52.283 141.195 54.4962 135.627 54.5025ZM135.627 12.8091C131.53 12.8091 127.524 14.0234 124.117 16.2986C120.71 18.5738 118.054 21.8076 116.486 25.5911C114.918 29.3746 114.508 33.5379 115.307 37.5544C116.106 41.571 118.08 45.2604 120.977 48.1562C123.875 51.0519 127.566 53.024 131.585 53.8229C135.604 54.6218 139.77 54.2118 143.556 52.6446C147.342 51.0774 150.577 48.4235 152.854 45.0185C155.131 41.6134 156.346 37.6101 156.346 33.5149C156.339 28.0253 154.155 22.7623 150.27 18.8805C146.386 14.9988 141.12 12.8153 135.627 12.8091Z" fill="#CCCCCC"/>
<path d="M135.627 31.9655C135.59 31.9655 135.554 31.9506 135.528 31.9242C135.501 31.8978 135.486 31.862 135.486 31.8246V12.6682C135.486 12.6308 135.501 12.595 135.528 12.5686C135.554 12.5422 135.59 12.5273 135.627 12.5273C135.665 12.5273 135.7 12.5422 135.727 12.5686C135.753 12.595 135.768 12.6308 135.768 12.6682V31.8246C135.768 31.862 135.753 31.8978 135.727 31.9242C135.7 31.9506 135.665 31.9655 135.627 31.9655Z" fill="#CCCCCC"/>
<path d="M156.487 33.6557H137.319C137.281 33.6557 137.245 33.6409 137.219 33.6145C137.193 33.5881 137.178 33.5522 137.178 33.5149C137.178 33.4775 137.193 33.4417 137.219 33.4153C137.245 33.3889 137.281 33.374 137.319 33.374H156.487C156.524 33.374 156.56 33.3889 156.586 33.4153C156.613 33.4417 156.628 33.4775 156.628 33.5149C156.628 33.5522 156.613 33.5881 156.586 33.6145C156.56 33.6409 156.524 33.6557 156.487 33.6557Z" fill="#CCCCCC"/>
<path d="M133.937 33.6557H114.778C114.74 33.6557 114.704 33.6409 114.678 33.6145C114.652 33.5881 114.637 33.5522 114.637 33.5149C114.637 33.4775 114.652 33.4417 114.678 33.4153C114.704 33.3889 114.74 33.374 114.778 33.374H133.937C133.974 33.374 134.01 33.3889 134.036 33.4153C134.063 33.4417 134.078 33.4775 134.078 33.5149C134.078 33.5522 134.063 33.5881 134.036 33.6145C134.01 33.6409 133.974 33.6557 133.937 33.6557Z" fill="#CCCCCC"/>
<path d="M135.627 54.5026C135.59 54.5026 135.554 54.4878 135.528 54.4613C135.501 54.4349 135.486 54.3991 135.486 54.3617V35.2053C135.486 35.168 135.501 35.1321 135.528 35.1057C135.554 35.0793 135.59 35.0645 135.627 35.0645C135.665 35.0645 135.7 35.0793 135.727 35.1057C135.753 35.1321 135.768 35.168 135.768 35.2053V54.3617C135.768 54.3991 135.753 54.4349 135.727 54.4613C135.7 54.4878 135.665 54.5026 135.627 54.5026Z" fill="#CCCCCC"/>
<path d="M136.871 32.5115C136.844 32.5115 136.816 32.5033 136.793 32.4878C136.77 32.4723 136.752 32.4503 136.741 32.4246C136.731 32.3988 136.728 32.3705 136.733 32.3432C136.739 32.3159 136.752 32.2908 136.772 32.2711L150.266 18.785C150.292 18.7588 150.328 18.7441 150.365 18.7441C150.403 18.7442 150.439 18.759 150.465 18.7854C150.491 18.8117 150.506 18.8475 150.506 18.8847C150.506 18.922 150.492 18.9577 150.465 18.9842L136.971 32.4703C136.958 32.4834 136.942 32.4938 136.925 32.5008C136.908 32.5079 136.89 32.5116 136.871 32.5115Z" fill="#CCCCCC"/>
<path d="M134.385 32.5115C134.366 32.5116 134.348 32.5079 134.331 32.5008C134.314 32.4938 134.298 32.4834 134.285 32.4703L120.791 18.9842C120.765 18.9577 120.75 18.922 120.75 18.8847C120.75 18.8475 120.765 18.8117 120.791 18.7854C120.818 18.759 120.853 18.7442 120.891 18.7441C120.928 18.7441 120.964 18.7588 120.99 18.785L134.484 32.2711C134.504 32.2908 134.518 32.3159 134.523 32.3432C134.528 32.3705 134.526 32.3988 134.515 32.4246C134.504 32.4503 134.486 32.4723 134.463 32.4878C134.44 32.5033 134.413 32.5115 134.385 32.5115Z" fill="#CCCCCC"/>
<path d="M150.365 48.2869C150.347 48.287 150.328 48.2833 150.311 48.2762C150.294 48.2692 150.279 48.2588 150.266 48.2457L136.771 34.7596C136.745 34.7331 136.73 34.6974 136.73 34.6601C136.731 34.6228 136.745 34.5871 136.772 34.5608C136.798 34.5344 136.834 34.5196 136.871 34.5195C136.908 34.5195 136.944 34.5342 136.971 34.5604L150.465 48.0465C150.485 48.0662 150.498 48.0913 150.503 48.1186C150.509 48.1459 150.506 48.1742 150.495 48.2C150.485 48.2257 150.467 48.2477 150.444 48.2632C150.42 48.2787 150.393 48.2869 150.365 48.2869Z" fill="#CCCCCC"/>
<path d="M120.891 48.2863C120.863 48.2863 120.836 48.2781 120.813 48.2626C120.789 48.2471 120.771 48.2251 120.761 48.1994C120.75 48.1736 120.747 48.1453 120.753 48.118C120.758 48.0907 120.772 48.0656 120.791 48.0459L134.286 34.5598C134.312 34.5334 134.348 34.5186 134.385 34.5186C134.423 34.5186 134.458 34.5334 134.485 34.5598C134.511 34.5862 134.526 34.622 134.526 34.6594C134.526 34.6967 134.511 34.7326 134.485 34.759L120.991 48.2451C120.977 48.2582 120.962 48.2686 120.945 48.2756C120.928 48.2827 120.909 48.2863 120.891 48.2863Z" fill="#CCCCCC"/>
<path d="M135.628 47.9527C132.771 47.9527 129.978 47.1059 127.602 45.5194C125.226 43.933 123.375 41.6781 122.281 39.04C121.188 36.4018 120.902 33.4989 121.459 30.6982C122.017 27.8976 123.393 25.325 125.413 23.3059C127.433 21.2867 130.007 19.9117 132.81 19.3546C135.612 18.7975 138.517 19.0834 141.157 20.1762C143.796 21.2689 146.053 23.1194 147.64 25.4937C149.227 27.868 150.075 30.6594 150.075 33.5149C150.07 37.3427 148.547 41.0125 145.839 43.7192C143.13 46.4258 139.458 47.9483 135.628 47.9527ZM135.628 19.3589C132.827 19.3589 130.088 20.1891 127.759 21.7446C125.429 23.3001 123.614 25.511 122.542 28.0976C121.47 30.6843 121.189 33.5306 121.736 36.2766C122.282 39.0226 123.631 41.545 125.612 43.5247C127.593 45.5045 130.117 46.8527 132.865 47.399C135.612 47.9452 138.46 47.6648 141.049 46.5934C143.637 45.522 145.849 43.7075 147.406 41.3796C148.962 39.0516 149.793 36.3147 149.793 33.5149C149.788 29.7618 148.295 26.1636 145.639 23.5098C142.984 20.8559 139.384 19.3631 135.628 19.3589Z" fill="#CCCCCC"/>
<path d="M135.629 35.2048C136.563 35.2048 137.32 34.448 137.32 33.5145C137.32 32.581 136.563 31.8242 135.629 31.8242C134.695 31.8242 133.938 32.581 133.938 33.5145C133.938 34.448 134.695 35.2048 135.629 35.2048Z" fill="#1B847A"/>
<path d="M129.08 62.0657L127.594 62.1086L134.846 32.8535L136.194 33.2646L129.08 62.0657Z" fill="#1B847A"/>
<path d="M142.175 62.0657L143.661 62.1086L136.408 32.8535L135.061 33.2646L142.175 62.0657Z" fill="#1B847A"/>
<path d="M137.883 16.8936H133.232V19.429H137.883V16.8936Z" fill="#CCCCCC"/>
<path d="M135.346 17.457H133.514V19.429H135.346V17.457Z" fill="white"/>
<path d="M137.602 17.457H135.77V19.429H137.602V17.457Z" fill="white"/>
<path d="M135.557 22.1764C134.847 22.1756 134.166 21.8934 133.664 21.3917C133.162 20.89 132.88 20.2097 132.879 19.5002V19.4298C132.879 19.2617 132.946 19.1006 133.065 18.9818C133.184 18.8629 133.345 18.7961 133.513 18.7959H137.6C137.769 18.7961 137.93 18.8629 138.049 18.9818C138.168 19.1006 138.234 19.2617 138.235 19.4298V19.5002C138.234 20.2097 137.951 20.89 137.449 21.3917C136.947 21.8934 136.267 22.1756 135.557 22.1764Z" fill="#CCCCCC"/>
<path d="M137.708 17.5274H133.405C133.345 17.5274 133.286 17.512 133.234 17.4828C133.181 17.4536 133.137 17.4114 133.105 17.3604C133.074 17.3093 133.056 17.251 133.053 17.191C133.05 17.1311 133.063 17.0714 133.09 17.0177L133.936 15.3275C133.965 15.2688 134.01 15.2195 134.065 15.1851C134.121 15.1507 134.185 15.1326 134.251 15.1328H136.862C136.928 15.1326 136.992 15.1507 137.048 15.1851C137.103 15.2195 137.148 15.2688 137.177 15.3275L138.023 17.0177C138.05 17.0714 138.062 17.1311 138.06 17.191C138.057 17.251 138.039 17.3093 138.007 17.3604C137.976 17.4114 137.932 17.4536 137.879 17.4828C137.827 17.512 137.768 17.5274 137.708 17.5274Z" fill="#D08D7A"/>
<path d="M150.426 22.5283H145.775V25.0637H150.426V22.5283Z" fill="#CCCCCC"/>
<path d="M147.889 23.0918H146.057V25.0638H147.889V23.0918Z" fill="white"/>
<path d="M150.145 23.0918H148.312V25.0638H150.145V23.0918Z" fill="white"/>
<path d="M148.102 27.8102C147.392 27.8094 146.711 27.5272 146.209 27.0255C145.707 26.5238 145.425 25.8435 145.424 25.134V25.0635C145.424 24.8955 145.491 24.7344 145.61 24.6155C145.729 24.4967 145.89 24.4299 146.058 24.4297H150.145C150.314 24.4299 150.475 24.4967 150.594 24.6155C150.713 24.7344 150.779 24.8955 150.78 25.0635V25.134C150.779 25.8435 150.496 26.5238 149.994 27.0255C149.492 27.5272 148.812 27.8094 148.102 27.8102Z" fill="#CCCCCC"/>
<path d="M146.795 20.9082C146.756 20.9081 146.718 20.9189 146.684 20.9396C146.651 20.9602 146.624 20.9898 146.606 21.025L145.761 22.7153C145.744 22.7475 145.737 22.7833 145.738 22.8193C145.74 22.8552 145.751 22.8902 145.77 22.9208C145.789 22.9515 145.815 22.9768 145.847 22.9943C145.878 23.0118 145.914 23.0211 145.95 23.021H150.252C150.288 23.0211 150.324 23.0118 150.355 22.9943C150.387 22.9768 150.413 22.9515 150.432 22.9208C150.451 22.8902 150.462 22.8552 150.464 22.8193C150.465 22.7833 150.458 22.7475 150.441 22.7153L149.596 21.025C149.578 20.9898 149.551 20.9602 149.518 20.9396C149.485 20.9189 149.446 20.9081 149.407 20.9082H146.795Z" fill="#D08D7A"/>
<path d="M155.36 35.2051H150.709V37.7405H155.36V35.2051Z" fill="#CCCCCC"/>
<path d="M152.822 35.7686H150.99V37.7405H152.822V35.7686Z" fill="white"/>
<path d="M155.078 35.7686H153.246V37.7405H155.078V35.7686Z" fill="white"/>
<path d="M153.033 40.487C152.323 40.4862 151.643 40.204 151.141 39.7022C150.639 39.2005 150.356 38.5203 150.355 37.8107V37.7403C150.356 37.5722 150.423 37.4111 150.541 37.2923C150.66 37.1735 150.822 37.1066 150.99 37.1064H155.077C155.245 37.1066 155.406 37.1735 155.525 37.2923C155.644 37.4111 155.711 37.5722 155.711 37.7403V37.8107C155.71 38.5203 155.428 39.2005 154.926 39.7022C154.424 40.204 153.743 40.4862 153.033 40.487Z" fill="#CCCCCC"/>
<path d="M155.186 35.8389H150.884C150.824 35.8389 150.764 35.8236 150.712 35.7943C150.66 35.7651 150.615 35.7229 150.584 35.6719C150.552 35.6208 150.534 35.5625 150.532 35.5026C150.529 35.4426 150.542 35.3829 150.568 35.3292L151.414 33.639C151.443 33.5803 151.488 33.531 151.544 33.4966C151.6 33.4622 151.664 33.4441 151.729 33.4443H154.341C154.406 33.4441 154.47 33.4622 154.526 33.4966C154.582 33.531 154.627 33.5803 154.656 33.639L155.501 35.3292C155.528 35.3829 155.541 35.4426 155.538 35.5026C155.536 35.5625 155.518 35.6208 155.486 35.6719C155.454 35.7229 155.41 35.7651 155.358 35.7943C155.305 35.8236 155.246 35.8389 155.186 35.8389Z" fill="#D08D7A"/>
<path d="M150.145 47.0371H145.494V49.5725H150.145V47.0371Z" fill="#CCCCCC"/>
<path d="M147.608 47.6006H145.775V49.5726H147.608V47.6006Z" fill="white"/>
<path d="M149.863 47.6006H148.031V49.5726H149.863V47.6006Z" fill="white"/>
<path d="M147.819 52.319C147.109 52.3182 146.428 52.036 145.926 51.5343C145.424 51.0325 145.141 50.3523 145.141 49.6428V49.5723C145.141 49.4043 145.208 49.2432 145.327 49.1243C145.445 49.0055 145.607 48.9387 145.775 48.9385H149.862C150.03 48.9387 150.192 49.0055 150.31 49.1243C150.429 49.2432 150.496 49.4043 150.496 49.5723V49.6428C150.496 50.3523 150.213 51.0325 149.711 51.5343C149.209 52.036 148.528 52.3182 147.819 52.319Z" fill="#CCCCCC"/>
<path d="M149.971 47.6709H145.669C145.609 47.6709 145.55 47.6556 145.497 47.6264C145.445 47.5971 145.401 47.555 145.369 47.5039C145.337 47.4528 145.319 47.3946 145.317 47.3346C145.314 47.2746 145.327 47.215 145.354 47.1613L146.199 45.471C146.228 45.4124 146.273 45.3631 146.329 45.3287C146.385 45.2943 146.449 45.2761 146.514 45.2764H149.126C149.191 45.2761 149.255 45.2943 149.311 45.3287C149.367 45.3631 149.412 45.4124 149.441 45.471L150.287 47.1613C150.313 47.215 150.326 47.2746 150.323 47.3346C150.321 47.3946 150.303 47.4528 150.271 47.5039C150.24 47.555 150.195 47.5971 150.143 47.6264C150.091 47.6556 150.031 47.6709 149.971 47.6709Z" fill="#D08D7A"/>
<path d="M120.829 25.0635H125.48V22.5281H120.829V25.0635Z" fill="#CCCCCC"/>
<path d="M123.365 25.0635H125.197V23.0915H123.365V25.0635Z" fill="white"/>
<path d="M121.111 25.0635H122.943V23.0915H121.111V25.0635Z" fill="white"/>
<path d="M123.154 27.8102C122.444 27.8094 121.764 27.5272 121.262 27.0255C120.76 26.5238 120.477 25.8435 120.477 25.134V25.0635C120.477 24.8955 120.544 24.7344 120.663 24.6155C120.781 24.4967 120.943 24.4299 121.111 24.4297H125.198C125.366 24.4299 125.527 24.4967 125.646 24.6155C125.765 24.7344 125.832 24.8955 125.832 25.0635V25.134C125.832 25.8435 125.549 26.5238 125.047 27.0255C124.545 27.5272 123.864 27.8094 123.154 27.8102Z" fill="#CCCCCC"/>
<path d="M125.305 23.1621H121.003C120.943 23.1621 120.884 23.1468 120.831 23.1176C120.779 23.0883 120.735 23.0462 120.703 22.9951C120.671 22.9441 120.653 22.8858 120.651 22.8258C120.648 22.7658 120.661 22.7062 120.688 22.6525L121.533 20.9622C121.562 20.9036 121.607 20.8543 121.663 20.8199C121.719 20.7855 121.783 20.7674 121.848 20.7676H124.46C124.525 20.7674 124.589 20.7855 124.645 20.8199C124.701 20.8543 124.746 20.9036 124.775 20.9622L125.621 22.6525C125.647 22.7062 125.66 22.7658 125.657 22.8258C125.655 22.8858 125.637 22.9441 125.605 22.9951C125.574 23.0462 125.529 23.0883 125.477 23.1176C125.425 23.1468 125.365 23.1621 125.305 23.1621Z" fill="#D08D7A"/>
<path d="M115.896 37.7402H120.547V35.2048H115.896V37.7402Z" fill="#CCCCCC"/>
<path d="M118.433 37.7402H120.266V35.7683H118.433V37.7402Z" fill="white"/>
<path d="M116.178 37.7402H118.01V35.7683H116.178V37.7402Z" fill="white"/>
<path d="M118.221 40.487C117.511 40.4862 116.83 40.204 116.328 39.7022C115.826 39.2005 115.544 38.5203 115.543 37.8107V37.7403C115.543 37.5722 115.61 37.4111 115.729 37.2923C115.848 37.1735 116.009 37.1066 116.177 37.1064H120.265C120.433 37.1066 120.594 37.1735 120.713 37.2923C120.832 37.4111 120.899 37.5722 120.899 37.7403V37.8107C120.898 38.5203 120.616 39.2005 120.114 39.7022C119.611 40.204 118.931 40.4862 118.221 40.487Z" fill="#CCCCCC"/>
<path d="M120.374 35.8389H116.071C116.011 35.8389 115.952 35.8236 115.9 35.7943C115.847 35.7651 115.803 35.7229 115.771 35.6719C115.74 35.6208 115.722 35.5625 115.719 35.5026C115.716 35.4426 115.729 35.3829 115.756 35.3292L116.602 33.639C116.631 33.5803 116.676 33.531 116.731 33.4966C116.787 33.4622 116.851 33.4441 116.917 33.4443H119.528C119.594 33.4441 119.658 33.4622 119.714 33.4966C119.769 33.531 119.814 33.5803 119.843 33.639L120.689 35.3292C120.716 35.3829 120.728 35.4426 120.726 35.5026C120.723 35.5625 120.705 35.6208 120.673 35.6719C120.642 35.7229 120.598 35.7651 120.545 35.7943C120.493 35.8236 120.434 35.8389 120.374 35.8389Z" fill="#D08D7A"/>
<path d="M121.111 49.5723H125.762V47.0369H121.111V49.5723Z" fill="#CCCCCC"/>
<path d="M123.648 49.5723H125.48V47.6003H123.648V49.5723Z" fill="white"/>
<path d="M121.392 49.5723H123.225V47.6003H121.392V49.5723Z" fill="white"/>
<path d="M123.436 52.319C122.726 52.3182 122.045 52.036 121.543 51.5343C121.041 51.0325 120.759 50.3523 120.758 49.6428V49.5723C120.758 49.4043 120.825 49.2432 120.944 49.1243C121.063 49.0055 121.224 48.9387 121.392 48.9385H125.479C125.647 48.9387 125.809 49.0055 125.928 49.1243C126.047 49.2432 126.113 49.4043 126.114 49.5723V49.6428C126.113 50.3523 125.83 51.0325 125.328 51.5343C124.826 52.036 124.146 52.3182 123.436 52.319Z" fill="#CCCCCC"/>
<path d="M125.589 47.6709H121.286C121.226 47.6709 121.167 47.6556 121.114 47.6264C121.062 47.5971 121.018 47.555 120.986 47.5039C120.955 47.4528 120.937 47.3946 120.934 47.3346C120.931 47.2746 120.944 47.215 120.971 47.1613L121.816 45.471C121.846 45.4124 121.89 45.3631 121.946 45.3287C122.002 45.2943 122.066 45.2761 122.132 45.2764H124.743C124.808 45.2761 124.873 45.2943 124.928 45.3287C124.984 45.3631 125.029 45.4124 125.058 45.471L125.904 47.1613C125.931 47.215 125.943 47.2746 125.941 47.3346C125.938 47.3946 125.92 47.4528 125.888 47.5039C125.857 47.555 125.813 47.5971 125.76 47.6264C125.708 47.6556 125.649 47.6709 125.589 47.6709Z" fill="#D08D7A"/>
<path d="M137.883 52.3896H133.232V54.9251H137.883V52.3896Z" fill="#CCCCCC"/>
<path d="M135.346 52.9531H133.514V54.9251H135.346V52.9531Z" fill="white"/>
<path d="M137.602 52.9531H135.77V54.9251H137.602V52.9531Z" fill="white"/>
<path d="M133.513 54.4316C133.382 54.4318 133.257 54.4838 133.164 54.5762C133.072 54.6686 133.02 54.7939 133.02 54.9246V54.9951C133.019 55.3282 133.085 55.6582 133.212 55.9661C133.339 56.2741 133.526 56.5539 133.762 56.7896C133.997 57.0253 134.277 57.2123 134.585 57.3399C134.893 57.4675 135.223 57.5331 135.556 57.5331C135.89 57.5331 136.22 57.4675 136.528 57.3399C136.836 57.2123 137.116 57.0253 137.351 56.7896C137.587 56.5539 137.774 56.2741 137.901 55.9661C138.028 55.6582 138.094 55.3282 138.093 54.9951V54.9246C138.093 54.7939 138.041 54.6686 137.949 54.5762C137.856 54.4838 137.731 54.4318 137.6 54.4316H133.513Z" fill="#CCCCCC"/>
<path d="M134.252 50.7695C134.213 50.7694 134.175 50.7803 134.141 50.8009C134.108 50.8216 134.081 50.8511 134.063 50.8863L133.218 52.5766C133.202 52.6088 133.194 52.6446 133.196 52.6806C133.197 52.7166 133.208 52.7515 133.227 52.7822C133.246 52.8128 133.272 52.8381 133.304 52.8556C133.335 52.8732 133.371 52.8824 133.407 52.8824H137.709C137.745 52.8824 137.781 52.8732 137.812 52.8556C137.844 52.8381 137.87 52.8128 137.889 52.7822C137.908 52.7515 137.919 52.7166 137.921 52.6806C137.922 52.6446 137.915 52.6088 137.898 52.5766L137.053 50.8863C137.035 50.8511 137.008 50.8216 136.975 50.8009C136.942 50.7803 136.903 50.7694 136.864 50.7695H134.252Z" fill="#D08D7A"/>
<path d="M73.5074 87.541C73.5496 87.541 73.59 87.5243 73.6199 87.4945C73.6497 87.4647 73.6664 87.4242 73.6664 87.3821C73.6664 87.3399 73.6497 87.2995 73.6199 87.2697C73.59 87.2399 73.5496 87.2231 73.5074 87.2231H71.9966V86.5874H73.5074C73.5496 86.5874 73.59 86.5707 73.6199 86.5409C73.6497 86.511 73.6664 86.4706 73.6664 86.4285C73.6664 86.3863 73.6497 86.3459 73.6199 86.3161C73.59 86.2863 73.5496 86.2695 73.5074 86.2695H60.6258C60.5836 86.2695 60.5432 86.2863 60.5134 86.3161C60.4836 86.3459 60.4668 86.3863 60.4668 86.4285C60.4668 86.4706 60.4836 86.511 60.5134 86.5409C60.5432 86.5707 60.5836 86.5874 60.6258 86.5874H62.1366V87.2231H60.6258C60.5836 87.2231 60.5432 87.2399 60.5134 87.2697C60.4836 87.2995 60.4668 87.3399 60.4668 87.3821C60.4668 87.4242 60.4836 87.4647 60.5134 87.4945C60.5432 87.5243 60.5836 87.541 60.6258 87.541H62.1366V88.1768H60.6258C60.5836 88.1768 60.5432 88.1935 60.5134 88.2233C60.4836 88.2531 60.4668 88.2935 60.4668 88.3357C60.4668 88.3778 60.4836 88.4183 60.5134 88.4481C60.5432 88.4779 60.5836 88.4946 60.6258 88.4946H62.1366V89.1304H60.7849C60.7005 89.1304 60.6196 89.1639 60.56 89.2235C60.5003 89.2831 60.4668 89.3639 60.4668 89.4482C60.4668 89.5326 60.5003 89.6134 60.56 89.673C60.6196 89.7326 60.7005 89.7661 60.7849 89.7661H62.0717C62.0623 89.7916 62.0574 89.8185 62.0571 89.8456V92.0707C62.0571 92.1339 62.0822 92.1946 62.127 92.2393C62.1717 92.284 62.2324 92.3091 62.2957 92.3091C62.3589 92.3091 62.4196 92.284 62.4643 92.2393C62.5091 92.1946 62.5342 92.1339 62.5342 92.0707V89.8456C62.5339 89.8185 62.529 89.7916 62.5196 89.7661H71.6136C71.6042 89.7916 71.5993 89.8185 71.599 89.8456V92.0707C71.599 92.1339 71.6242 92.1946 71.6689 92.2393C71.7136 92.284 71.7743 92.3091 71.8376 92.3091C71.9008 92.3091 71.9615 92.284 72.0063 92.2393C72.051 92.1946 72.0761 92.1339 72.0761 92.0707V89.8456C72.0758 89.8185 72.0709 89.7916 72.0615 89.7661H73.3484C73.4327 89.7661 73.5136 89.7326 73.5733 89.673C73.6329 89.6134 73.6664 89.5326 73.6664 89.4482C73.6664 89.3639 73.6329 89.2831 73.5733 89.2235C73.5136 89.1639 73.4327 89.1304 73.3484 89.1304H71.9966V88.4946H73.5074C73.5496 88.4946 73.59 88.4779 73.6199 88.4481C73.6497 88.4183 73.6664 88.3778 73.6664 88.3357C73.6664 88.2935 73.6497 88.2531 73.6199 88.2233C73.59 88.1935 73.5496 88.1768 73.5074 88.1768H71.9966V87.541H73.5074ZM62.4547 86.5874H71.6786V87.2231H62.4547V86.5874ZM71.6786 89.1304H62.4547V88.4946H71.6786V89.1304ZM71.6786 88.1768H62.4547V87.541H71.6786V88.1768Z" fill="#1B847A"/>
<path d="M123.205 106.563C123.247 106.563 123.287 106.547 123.317 106.517C123.347 106.487 123.364 106.447 123.364 106.405C123.364 106.362 123.347 106.322 123.317 106.292C123.287 106.262 123.247 106.246 123.205 106.246H121.694V105.61H123.205C123.247 105.61 123.287 105.593 123.317 105.563C123.347 105.534 123.364 105.493 123.364 105.451C123.364 105.409 123.347 105.368 123.317 105.339C123.287 105.309 123.247 105.292 123.205 105.292H110.323C110.281 105.292 110.24 105.309 110.211 105.339C110.181 105.368 110.164 105.409 110.164 105.451C110.164 105.493 110.181 105.534 110.211 105.563C110.24 105.593 110.281 105.61 110.323 105.61H111.834V106.246H110.323C110.281 106.246 110.24 106.262 110.211 106.292C110.181 106.322 110.164 106.362 110.164 106.405C110.164 106.447 110.181 106.487 110.211 106.517C110.24 106.547 110.281 106.563 110.323 106.563H111.834V107.199H110.323C110.281 107.199 110.24 107.216 110.211 107.246C110.181 107.276 110.164 107.316 110.164 107.358C110.164 107.4 110.181 107.441 110.211 107.471C110.24 107.5 110.281 107.517 110.323 107.517H111.834V108.153H110.482C110.398 108.153 110.317 108.186 110.257 108.246C110.198 108.306 110.164 108.386 110.164 108.471C110.164 108.555 110.198 108.636 110.257 108.695C110.317 108.755 110.398 108.789 110.482 108.789H111.769C111.76 108.814 111.755 108.841 111.754 108.868V111.093C111.754 111.125 111.76 111.156 111.772 111.185C111.784 111.214 111.802 111.24 111.824 111.262C111.846 111.284 111.872 111.302 111.901 111.314C111.93 111.326 111.962 111.332 111.993 111.332C112.024 111.332 112.055 111.326 112.084 111.314C112.113 111.302 112.14 111.284 112.162 111.262C112.184 111.24 112.202 111.214 112.214 111.185C112.225 111.156 112.232 111.125 112.231 111.093V108.868C112.231 108.841 112.226 108.814 112.217 108.789H121.311C121.302 108.814 121.297 108.841 121.296 108.868V111.093C121.296 111.156 121.321 111.217 121.366 111.262C121.411 111.306 121.472 111.332 121.535 111.332C121.598 111.332 121.659 111.306 121.704 111.262C121.748 111.217 121.773 111.156 121.773 111.093V108.868C121.773 108.841 121.768 108.814 121.759 108.789H123.046C123.13 108.789 123.211 108.755 123.271 108.695C123.33 108.636 123.364 108.555 123.364 108.471C123.364 108.386 123.33 108.306 123.271 108.246C123.211 108.186 123.13 108.153 123.046 108.153H121.694V107.517H123.205C123.247 107.517 123.287 107.5 123.317 107.471C123.347 107.441 123.364 107.4 123.364 107.358C123.364 107.316 123.347 107.276 123.317 107.246C123.287 107.216 123.247 107.199 123.205 107.199H121.694V106.563L123.205 106.563ZM112.152 105.61H121.376V106.246H112.152V105.61ZM121.376 108.153H112.152V107.517H121.376V108.153ZM121.376 107.199H112.152V106.563H121.376V107.199Z" fill="#1B847A"/>
<path d="M163.291 85.708C163.333 85.708 163.373 85.6913 163.403 85.6615C163.433 85.6317 163.45 85.5912 163.45 85.5491C163.45 85.5069 163.433 85.4665 163.403 85.4367C163.373 85.4069 163.333 85.3901 163.291 85.3901H161.78V84.7544H163.291C163.333 84.7544 163.373 84.7376 163.403 84.7078C163.433 84.678 163.45 84.6376 163.45 84.5955C163.45 84.5533 163.433 84.5129 163.403 84.4831C163.373 84.4533 163.333 84.4365 163.291 84.4365H150.409C150.367 84.4365 150.326 84.4533 150.297 84.4831C150.267 84.5129 150.25 84.5533 150.25 84.5955C150.25 84.6376 150.267 84.678 150.297 84.7078C150.326 84.7376 150.367 84.7544 150.409 84.7544H151.92V85.3901H150.409C150.367 85.3901 150.326 85.4069 150.297 85.4367C150.267 85.4665 150.25 85.5069 150.25 85.5491C150.25 85.5912 150.267 85.6317 150.297 85.6615C150.326 85.6913 150.367 85.708 150.409 85.708H151.92V86.3438H150.409C150.367 86.3438 150.326 86.3605 150.297 86.3903C150.267 86.4201 150.25 86.4605 150.25 86.5027C150.25 86.5448 150.267 86.5853 150.297 86.6151C150.326 86.6449 150.367 86.6616 150.409 86.6616H151.92V87.2974H150.568C150.484 87.2976 150.403 87.3312 150.344 87.3908C150.284 87.4504 150.251 87.5311 150.251 87.6152C150.251 87.6994 150.284 87.7801 150.344 87.8397C150.403 87.8993 150.484 87.9329 150.568 87.9331H151.855C151.846 87.9586 151.841 87.9854 151.84 88.0126V90.2377C151.84 90.3009 151.865 90.3615 151.91 90.4063C151.955 90.451 152.016 90.4761 152.079 90.4761C152.142 90.4761 152.203 90.451 152.248 90.4063C152.292 90.3615 152.317 90.3009 152.317 90.2377V88.0126C152.317 87.9854 152.312 87.9586 152.303 87.9331H161.397C161.387 87.9586 161.383 87.9854 161.382 88.0126V90.2377C161.382 90.3009 161.407 90.3615 161.452 90.4063C161.497 90.451 161.558 90.4761 161.621 90.4761C161.684 90.4761 161.745 90.451 161.789 90.4063C161.834 90.3615 161.859 90.3009 161.859 90.2377V88.0126C161.859 87.9854 161.854 87.9586 161.845 87.9331H163.132C163.173 87.9332 163.215 87.9251 163.254 87.9092C163.292 87.8933 163.327 87.8699 163.357 87.8403C163.387 87.8108 163.41 87.7757 163.426 87.7371C163.442 87.6985 163.451 87.6571 163.451 87.6152C163.451 87.5734 163.442 87.532 163.426 87.4934C163.41 87.4548 163.387 87.4197 163.357 87.3901C163.327 87.3606 163.292 87.3372 163.254 87.3213C163.215 87.3054 163.173 87.2972 163.132 87.2974H161.78V86.6616H163.291C163.333 86.6616 163.373 86.6449 163.403 86.6151C163.433 86.5853 163.45 86.5448 163.45 86.5027C163.45 86.4605 163.433 86.4201 163.403 86.3903C163.373 86.3605 163.333 86.3438 163.291 86.3438H161.78V85.708H163.291ZM152.238 84.7544H161.462V85.3901H152.238V84.7544ZM161.462 87.2974H152.238V86.6616H161.462V87.2974ZM161.462 86.3438H152.238V85.708H161.462V86.3438Z" fill="#1B847A"/>
<path d="M102.918 125.671C102.918 121.595 99.6097 111.923 95.5284 111.923C91.4472 111.923 88.1387 121.595 88.1387 125.671C88.1399 127.629 88.919 129.506 90.3047 130.89C91.6904 132.274 93.5693 133.052 95.5284 133.052C97.4875 133.052 99.3664 132.274 100.752 130.89C102.138 129.506 102.917 127.629 102.918 125.671Z" fill="#39B51B" fill-opacity="0.5"/>
<path d="M95.5278 142.025C95.5054 142.025 95.484 142.016 95.4681 142C95.4523 141.984 95.4434 141.963 95.4434 141.94V124.7C95.4433 124.689 95.4454 124.678 95.4496 124.668C95.4539 124.657 95.4601 124.648 95.4679 124.64C95.4758 124.632 95.4851 124.626 95.4954 124.622C95.5057 124.617 95.5167 124.615 95.5278 124.615C95.539 124.615 95.55 124.617 95.5603 124.622C95.5706 124.626 95.5799 124.632 95.5878 124.64C95.5956 124.648 95.6019 124.657 95.6061 124.668C95.6103 124.678 95.6124 124.689 95.6124 124.7V141.94C95.6124 141.963 95.6035 141.984 95.5876 142C95.5718 142.016 95.5503 142.025 95.5278 142.025Z" fill="white"/>
<path d="M95.5276 127.921C95.5155 127.921 95.5035 127.919 95.4925 127.914C95.4815 127.909 95.4717 127.901 95.4637 127.892L91.2137 122.994C91.1992 122.977 91.1919 122.955 91.1936 122.933C91.1952 122.91 91.2056 122.89 91.2225 122.875C91.2394 122.861 91.2614 122.853 91.2836 122.855C91.3059 122.856 91.3267 122.866 91.3414 122.883L95.5914 127.782C95.602 127.794 95.6089 127.809 95.6112 127.825C95.6135 127.841 95.6112 127.857 95.6045 127.872C95.5977 127.887 95.5869 127.899 95.5733 127.908C95.5597 127.917 95.5438 127.921 95.5276 127.921Z" fill="white"/>
<path d="M95.5278 130.747C95.5111 130.747 95.4948 130.742 95.4809 130.733C95.467 130.724 95.4562 130.711 95.4498 130.695C95.4434 130.68 95.4417 130.663 95.445 130.646C95.4482 130.63 95.4563 130.615 95.4681 130.603L97.883 128.19C97.8989 128.174 97.9204 128.165 97.9428 128.165C97.9652 128.165 97.9866 128.174 98.0025 128.19C98.0183 128.206 98.0272 128.227 98.0272 128.249C98.0272 128.272 98.0183 128.293 98.0025 128.309L95.5876 130.723C95.5798 130.731 95.5704 130.737 95.5602 130.741C95.5499 130.745 95.5389 130.747 95.5278 130.747Z" fill="white"/>
<path d="M32.4338 45.6847C32.4338 41.6087 29.1253 31.9365 25.044 31.9365C20.9628 31.9365 17.6543 41.6087 17.6543 45.6847C17.6555 47.6426 18.4346 49.52 19.8203 50.904C21.206 52.288 23.0849 53.0655 25.044 53.0655C27.0031 53.0655 28.8821 52.288 30.2678 50.904C31.6535 49.52 32.4326 47.6426 32.4338 45.6847Z" fill="#1B847A"/>
<path d="M25.0454 62.0386C25.023 62.0386 25.0015 62.0297 24.9857 62.0139C24.9698 61.9981 24.9609 61.9766 24.9609 61.9542V44.7138C24.9611 44.6915 24.97 44.6702 24.9859 44.6544C25.0017 44.6387 25.0231 44.6299 25.0454 44.6299C25.0678 44.6299 25.0892 44.6387 25.105 44.6544C25.1209 44.6702 25.1298 44.6915 25.1299 44.7138V61.9542C25.1299 61.9653 25.1278 61.9762 25.1235 61.9865C25.1193 61.9967 25.113 62.006 25.1052 62.0139C25.0974 62.0217 25.088 62.028 25.0778 62.0322C25.0675 62.0365 25.0565 62.0386 25.0454 62.0386Z" fill="#CCCCCC"/>
<path d="M25.0454 47.9352C25.0332 47.9352 25.0213 47.9326 25.0102 47.9276C24.9992 47.9226 24.9894 47.9152 24.9815 47.9061L20.7314 43.0078C20.7168 42.9909 20.7095 42.9688 20.7112 42.9465C20.7128 42.9242 20.7232 42.9035 20.7401 42.8888C20.757 42.8742 20.779 42.8668 20.8013 42.8684C20.8237 42.8699 20.8444 42.8803 20.8592 42.8971L25.1092 47.7954C25.1198 47.8076 25.1266 47.8226 25.1289 47.8387C25.1313 47.8547 25.1289 47.871 25.1222 47.8858C25.1155 47.9005 25.1046 47.913 25.091 47.9217C25.0774 47.9305 25.0616 47.9352 25.0454 47.9352Z" fill="#CCCCCC"/>
<path d="M25.0454 50.7621C25.0287 50.7621 25.0124 50.7571 24.9985 50.7479C24.9846 50.7386 24.9738 50.7254 24.9674 50.71C24.961 50.6945 24.9593 50.6775 24.9626 50.6612C24.9658 50.6448 24.9739 50.6297 24.9857 50.6179L27.4006 48.2044C27.4085 48.1966 27.4178 48.1904 27.428 48.1861C27.4383 48.1819 27.4493 48.1797 27.4604 48.1797C27.4715 48.1797 27.4824 48.1819 27.4927 48.1861C27.5029 48.1904 27.5123 48.1966 27.5201 48.2044C27.528 48.2123 27.5342 48.2216 27.5384 48.2318C27.5427 48.2421 27.5449 48.253 27.5449 48.2641C27.5449 48.2752 27.5427 48.2862 27.5384 48.2964C27.5342 48.3067 27.528 48.316 27.5201 48.3238L25.1052 50.7373C25.0973 50.7452 25.088 50.7514 25.0778 50.7557C25.0675 50.7599 25.0565 50.7621 25.0454 50.7621Z" fill="#CCCCCC"/>
<path d="M17.041 61.9269C17.041 61.1092 17.366 60.325 17.9446 59.7468C18.5232 59.1686 19.3079 58.8438 20.1261 58.8438C20.9443 58.8438 21.729 59.1686 22.3075 59.7468C22.8861 60.325 23.2111 61.1092 23.2111 61.9269" fill="#39B51B" fill-opacity="0.5"/>
<path d="M20.1263 61.9273C20.1042 61.9273 20.083 61.9185 20.0674 61.9029C20.0518 61.8873 20.043 61.8661 20.043 61.844V60.2191C20.043 60.197 20.0518 60.1758 20.0674 60.1601C20.083 60.1445 20.1042 60.1357 20.1263 60.1357C20.1485 60.1357 20.1697 60.1445 20.1853 60.1601C20.2009 60.1758 20.2097 60.197 20.2097 60.2191V61.844C20.2097 61.8661 20.2009 61.8873 20.1853 61.9029C20.1697 61.9185 20.1485 61.9273 20.1263 61.9273Z" fill="white"/>
<path d="M20.1269 61.3686C20.1069 61.3687 20.0877 61.3615 20.0726 61.3485L19.072 60.4903C19.0637 60.4832 19.0569 60.4745 19.052 60.4647C19.047 60.455 19.044 60.4443 19.0432 60.4334C19.0424 60.4225 19.0437 60.4115 19.0471 60.4011C19.0505 60.3907 19.056 60.3811 19.0631 60.3728C19.0702 60.3645 19.0789 60.3577 19.0887 60.3527C19.0984 60.3478 19.1091 60.3448 19.12 60.344C19.1309 60.3432 19.1419 60.3445 19.1523 60.3479C19.1627 60.3513 19.1723 60.3567 19.1806 60.3638L20.1812 61.2221C20.1941 61.2332 20.2033 61.2479 20.2076 61.2644C20.2119 61.2809 20.211 61.2983 20.2051 61.3143C20.1992 61.3302 20.1885 61.344 20.1745 61.3537C20.1605 61.3634 20.1439 61.3686 20.1269 61.3686Z" fill="white"/>
<path d="M26.5469 61.9269C26.5469 61.1092 26.8719 60.325 27.4505 59.7468C28.029 59.1686 28.8137 58.8438 29.6319 58.8438C30.4501 58.8438 31.2348 59.1686 31.8134 59.7468C32.3919 60.325 32.7169 61.1092 32.7169 61.9269" fill="#39B51B" fill-opacity="0.5"/>
<path d="M29.6322 61.9273C29.6101 61.9273 29.5889 61.9185 29.5732 61.9029C29.5576 61.8873 29.5488 61.8661 29.5488 61.844V60.2191C29.5488 60.197 29.5576 60.1758 29.5732 60.1601C29.5889 60.1445 29.6101 60.1357 29.6322 60.1357C29.6543 60.1357 29.6755 60.1445 29.6912 60.1601C29.7068 60.1758 29.7156 60.197 29.7156 60.2191V61.844C29.7156 61.8661 29.7068 61.8873 29.6912 61.9029C29.6755 61.9185 29.6543 61.9273 29.6322 61.9273Z" fill="white"/>
<path d="M29.6304 61.3684C29.6105 61.3684 29.5913 61.3612 29.5762 61.3482L28.5756 60.49C28.559 60.4756 28.5487 60.4552 28.5471 60.4332C28.5455 60.4112 28.5526 60.3895 28.567 60.3728C28.5813 60.3561 28.6017 60.3457 28.6237 60.344C28.6457 60.3423 28.6674 60.3493 28.6842 60.3636L29.6848 61.2218C29.6977 61.2329 29.7069 61.2477 29.7112 61.2641C29.7155 61.2806 29.7146 61.298 29.7087 61.314C29.7027 61.3299 29.6921 61.3437 29.6781 61.3534C29.6641 61.3631 29.6475 61.3684 29.6304 61.3684Z" fill="white"/>
<path d="M187.688 125.442C187.688 121.366 184.379 111.693 180.298 111.693C176.217 111.693 172.908 121.366 172.908 125.442C172.909 127.399 173.688 129.277 175.074 130.661C176.46 132.045 178.339 132.822 180.298 132.822C182.257 132.822 184.136 132.045 185.522 130.661C186.907 129.277 187.687 127.399 187.688 125.442Z" fill="#39B51B" fill-opacity="0.5"/>
<path d="M180.297 141.795C180.275 141.795 180.253 141.787 180.238 141.771C180.222 141.755 180.213 141.733 180.213 141.711V124.471C180.213 124.46 180.215 124.449 180.219 124.438C180.223 124.428 180.23 124.419 180.237 124.411C180.245 124.403 180.255 124.396 180.265 124.392C180.275 124.388 180.286 124.386 180.297 124.386C180.309 124.386 180.32 124.388 180.33 124.392C180.34 124.396 180.349 124.403 180.357 124.411C180.365 124.419 180.371 124.428 180.376 124.438C180.38 124.449 180.382 124.46 180.382 124.471V141.711C180.382 141.733 180.373 141.755 180.357 141.771C180.341 141.787 180.32 141.795 180.297 141.795Z" fill="white"/>
<path d="M180.297 127.692C180.285 127.692 180.273 127.689 180.262 127.684C180.251 127.679 180.241 127.672 180.233 127.663L175.983 122.764C175.969 122.748 175.961 122.726 175.963 122.703C175.965 122.681 175.975 122.66 175.992 122.646C176.009 122.631 176.031 122.624 176.053 122.625C176.075 122.627 176.096 122.637 176.111 122.654L180.361 127.552C180.372 127.564 180.378 127.579 180.381 127.595C180.383 127.611 180.381 127.628 180.374 127.642C180.367 127.657 180.356 127.67 180.343 127.678C180.329 127.687 180.313 127.692 180.297 127.692Z" fill="white"/>
<path d="M180.297 130.519C180.281 130.519 180.264 130.514 180.25 130.505C180.237 130.495 180.226 130.482 180.219 130.467C180.213 130.451 180.211 130.434 180.215 130.418C180.218 130.402 180.226 130.387 180.238 130.375L182.653 127.961C182.66 127.953 182.67 127.947 182.68 127.943C182.69 127.939 182.701 127.937 182.712 127.937C182.723 127.937 182.734 127.939 182.745 127.943C182.755 127.947 182.764 127.953 182.772 127.961C182.78 127.969 182.786 127.978 182.79 127.989C182.795 127.999 182.797 128.01 182.797 128.021C182.797 128.032 182.795 128.043 182.79 128.053C182.786 128.064 182.78 128.073 182.772 128.081L180.357 130.494C180.349 130.502 180.34 130.508 180.33 130.513C180.319 130.517 180.308 130.519 180.297 130.519Z" fill="white"/>
<path d="M71.6884 126.733H70.2563C70.1495 126.733 70.0471 126.691 69.9716 126.615C69.8961 126.54 69.8536 126.438 69.8535 126.331V124.452C69.8536 124.346 69.8961 124.243 69.9716 124.168C70.0471 124.092 70.1495 124.05 70.2563 124.05H71.6884C71.7952 124.05 71.8976 124.092 71.9731 124.168C72.0486 124.243 72.0911 124.346 72.0912 124.452V126.331C72.0911 126.438 72.0486 126.54 71.9731 126.615C71.8976 126.691 71.7952 126.733 71.6884 126.733Z" fill="black" fill-opacity="0.1"/>
<path d="M83.7704 142.03H76.4307C76.229 142.03 76.0356 141.95 75.893 141.807C75.7504 141.664 75.6701 141.471 75.6699 141.27V127.046C75.6701 126.845 75.7504 126.652 75.893 126.509C76.0356 126.367 76.229 126.286 76.4307 126.286H83.7704C83.9721 126.286 84.1655 126.367 84.3081 126.509C84.4508 126.652 84.531 126.845 84.5312 127.046V141.27C84.531 141.471 84.4508 141.664 84.3081 141.807C84.1655 141.95 83.9721 142.03 83.7704 142.03Z" fill="black" fill-opacity="0.1"/>
<path d="M79.385 142.03H66.6749C66.4732 142.03 66.2798 141.95 66.1371 141.807C65.9945 141.664 65.9143 141.471 65.9141 141.27V127.046C65.9143 126.845 65.9945 126.652 66.1371 126.509C66.2798 126.367 66.4732 126.286 66.6749 126.286H79.385C79.5867 126.286 79.7801 126.367 79.9227 126.509C80.0653 126.652 80.1456 126.845 80.1458 127.046V141.27C80.1456 141.471 80.0653 141.664 79.9227 141.807C79.7801 141.95 79.5867 142.03 79.385 142.03Z" fill="#D08D7A"/>
<path d="M70.3447 126.733H68.9126C68.8058 126.733 68.7034 126.691 68.6279 126.615C68.5524 126.54 68.5099 126.438 68.5098 126.331V124.452C68.5099 124.346 68.5524 124.243 68.6279 124.168C68.7034 124.092 68.8058 124.05 68.9126 124.05H70.3447C70.4515 124.05 70.5538 124.092 70.6294 124.168C70.7049 124.243 70.7473 124.346 70.7475 124.452V126.331C70.7473 126.438 70.7049 126.54 70.6294 126.615C70.5538 126.691 70.4515 126.733 70.3447 126.733Z" fill="#D08D7A"/>
<path d="M72.2252 133.308H70.5245C70.4652 133.308 70.4083 133.284 70.3664 133.242C70.3244 133.201 70.3009 133.144 70.3008 133.084V130.49C70.3009 130.431 70.3244 130.374 70.3664 130.332C70.4083 130.29 70.4652 130.267 70.5245 130.267H72.2252C72.2845 130.267 72.3414 130.29 72.3833 130.332C72.4253 130.374 72.4489 130.431 72.449 130.49V133.084C72.4489 133.144 72.4253 133.201 72.3833 133.242C72.3414 133.284 72.2845 133.308 72.2252 133.308Z" fill="white"/>
<path d="M75.5358 133.308H73.8351C73.7758 133.308 73.7189 133.284 73.6769 133.242C73.635 133.201 73.6114 133.144 73.6113 133.084V130.49C73.6114 130.431 73.635 130.374 73.6769 130.332C73.7189 130.29 73.7758 130.267 73.8351 130.267H75.5358C75.5951 130.267 75.652 130.29 75.6939 130.332C75.7359 130.374 75.7594 130.431 75.7595 130.49V133.084C75.7594 133.144 75.7359 133.201 75.6939 133.242C75.652 133.284 75.5951 133.308 75.5358 133.308Z" fill="white"/>
<path d="M72.2252 138.049H70.5245C70.4652 138.049 70.4083 138.026 70.3664 137.984C70.3244 137.942 70.3009 137.885 70.3008 137.826V135.231C70.3009 135.172 70.3244 135.115 70.3664 135.073C70.4083 135.031 70.4652 135.008 70.5245 135.008H72.2252C72.2845 135.008 72.3414 135.031 72.3833 135.073C72.4253 135.115 72.4489 135.172 72.449 135.231V137.826C72.4489 137.885 72.4253 137.942 72.3833 137.984C72.3414 138.026 72.2845 138.049 72.2252 138.049Z" fill="white"/>
<path d="M75.5358 138.049H73.8351C73.7758 138.049 73.7189 138.026 73.6769 137.984C73.635 137.942 73.6114 137.885 73.6113 137.826V135.231C73.6114 135.172 73.635 135.115 73.6769 135.073C73.7189 135.031 73.7758 135.008 73.8351 135.008H75.5358C75.5951 135.008 75.652 135.031 75.6939 135.073C75.7359 135.115 75.7594 135.172 75.7595 135.231V137.826C75.7594 137.885 75.7359 137.942 75.6939 137.984C75.652 138.026 75.5951 138.049 75.5358 138.049Z" fill="white"/>
<path d="M20.7423 82.1492H19.0532C18.9272 82.1491 18.8065 82.099 18.7174 82.01C18.6284 81.921 18.5783 81.8003 18.5781 81.6744V77.7707C18.5783 77.6448 18.6284 77.5241 18.7174 77.4351C18.8065 77.3461 18.9272 77.296 19.0532 77.2959H20.7423C20.8683 77.296 20.989 77.3461 21.0781 77.4351C21.1672 77.5241 21.2173 77.6448 21.2174 77.7707V81.6744C21.2173 81.8003 21.1672 81.921 21.0781 82.01C20.989 82.099 20.8683 82.1491 20.7423 82.1492Z" fill="black" fill-opacity="0.1"/>
<path d="M27.394 118.549H18.7372C18.4993 118.549 18.2712 118.455 18.103 118.287C17.9347 118.118 17.8401 117.89 17.8398 117.653V82.7298C17.8401 82.492 17.9347 82.2641 18.103 82.096C18.2712 81.9278 18.4993 81.8333 18.7372 81.833H27.394C27.6319 81.8333 27.86 81.9278 28.0283 82.096C28.1965 82.2641 28.2911 82.492 28.2914 82.7298V117.653C28.2911 117.89 28.1965 118.118 28.0283 118.287C27.86 118.455 27.6319 118.549 27.394 118.549Z" fill="black" fill-opacity="0.1"/>
<path d="M22.2202 118.549H13.5634C13.3255 118.549 13.0974 118.455 12.9291 118.287C12.7609 118.118 12.6663 117.89 12.666 117.653V82.7298C12.6663 82.492 12.7609 82.2641 12.9291 82.096C13.0974 81.9278 13.3255 81.8333 13.5634 81.833H22.2202C22.4581 81.8333 22.6862 81.9278 22.8544 82.096C23.0226 82.2641 23.1173 82.492 23.1175 82.7298V117.653C23.1173 117.89 23.0226 118.118 22.8544 118.287C22.6862 118.455 22.4581 118.549 22.2202 118.549Z" fill="#D08D7A"/>
<path d="M19.1603 82.1492H17.4712C17.3452 82.1491 17.2245 82.099 17.1354 82.01C17.0463 81.921 16.9962 81.8003 16.9961 81.6744V77.7707C16.9962 77.6448 17.0463 77.5241 17.1354 77.4351C17.2245 77.3461 17.3452 77.296 17.4712 77.2959H19.1603C19.2863 77.296 19.407 77.3461 19.4961 77.4351C19.5851 77.5241 19.6352 77.6448 19.6354 77.7707V81.6744C19.6352 81.8003 19.5851 81.921 19.4961 82.01C19.407 82.099 19.2863 82.1491 19.1603 82.1492Z" fill="#D08D7A"/>
<path d="M16.9416 89.7464H14.9358C14.8658 89.7463 14.7987 89.7185 14.7493 89.6691C14.6998 89.6196 14.672 89.5526 14.6719 89.4827V86.423C14.672 86.353 14.6998 86.286 14.7493 86.2365C14.7987 86.1871 14.8658 86.1593 14.9358 86.1592H16.9416C17.0116 86.1593 17.0787 86.1871 17.1282 86.2365C17.1777 86.286 17.2055 86.353 17.2056 86.423V89.4827C17.2055 89.5526 17.1777 89.6196 17.1282 89.6691C17.0787 89.7185 17.0116 89.7463 16.9416 89.7464Z" fill="white"/>
<path d="M20.8479 89.7464H18.8421C18.7721 89.7463 18.705 89.7185 18.6555 89.6691C18.606 89.6196 18.5782 89.5526 18.5781 89.4827V86.423C18.5782 86.353 18.606 86.286 18.6555 86.2365C18.705 86.1871 18.7721 86.1593 18.8421 86.1592H20.8479C20.9179 86.1593 20.985 86.1871 21.0344 86.2365C21.0839 86.286 21.1118 86.353 21.1118 86.423V89.4827C21.1118 89.5526 21.0839 89.6196 21.0344 89.6691C20.985 89.7185 20.9179 89.7463 20.8479 89.7464Z" fill="white"/>
<path d="M16.9416 95.3382H14.9358C14.8658 95.3381 14.7987 95.3103 14.7493 95.2609C14.6998 95.2114 14.672 95.1444 14.6719 95.0744V92.0147C14.672 91.9448 14.6998 91.8778 14.7493 91.8283C14.7987 91.7789 14.8658 91.7511 14.9358 91.751H16.9416C17.0116 91.7511 17.0787 91.7789 17.1282 91.8283C17.1777 91.8778 17.2055 91.9448 17.2056 92.0147V95.0744C17.2055 95.1444 17.1777 95.2114 17.1282 95.2609C17.0787 95.3103 17.0116 95.3381 16.9416 95.3382Z" fill="white"/>
<path d="M20.8479 95.3382H18.8421C18.7721 95.3381 18.705 95.3103 18.6555 95.2609C18.606 95.2114 18.5782 95.1444 18.5781 95.0744V92.0147C18.5782 91.9448 18.606 91.8778 18.6555 91.8283C18.705 91.7789 18.7721 91.7511 18.8421 91.751H20.8479C20.9179 91.7511 20.985 91.7789 21.0344 91.8283C21.0839 91.8778 21.1118 91.9448 21.1118 92.0147V95.0744C21.1118 95.1444 21.0839 95.2114 21.0344 95.2609C20.985 95.3103 20.9179 95.3381 20.8479 95.3382Z" fill="white"/>
<path d="M16.9416 100.93H14.9358C14.8658 100.93 14.7987 100.902 14.7493 100.853C14.6998 100.803 14.672 100.736 14.6719 100.666V97.6065C14.672 97.5366 14.6998 97.4696 14.7493 97.4201C14.7987 97.3707 14.8658 97.3429 14.9358 97.3428H16.9416C17.0116 97.3429 17.0787 97.3707 17.1282 97.4201C17.1777 97.4696 17.2055 97.5366 17.2056 97.6065V100.666C17.2055 100.736 17.1777 100.803 17.1282 100.853C17.0787 100.902 17.0116 100.93 16.9416 100.93Z" fill="white"/>
<path d="M20.8479 100.93H18.8421C18.7721 100.93 18.705 100.902 18.6555 100.853C18.606 100.803 18.5782 100.736 18.5781 100.666V97.6065C18.5782 97.5366 18.606 97.4696 18.6555 97.4201C18.705 97.3707 18.7721 97.3429 18.8421 97.3428H20.8479C20.9179 97.3429 20.985 97.3707 21.0344 97.4201C21.0839 97.4696 21.1118 97.5366 21.1118 97.6065V100.666C21.1118 100.736 21.0839 100.803 21.0344 100.853C20.985 100.902 20.9179 100.93 20.8479 100.93Z" fill="white"/>
<path d="M16.9416 106.522H14.9358C14.8658 106.522 14.7987 106.494 14.7493 106.444C14.6998 106.395 14.672 106.328 14.6719 106.258V103.198C14.672 103.128 14.6998 103.061 14.7493 103.012C14.7987 102.962 14.8658 102.935 14.9358 102.935H16.9416C17.0116 102.935 17.0787 102.962 17.1282 103.012C17.1777 103.061 17.2055 103.128 17.2056 103.198V106.258C17.2055 106.328 17.1777 106.395 17.1282 106.444C17.0787 106.494 17.0116 106.522 16.9416 106.522Z" fill="white"/>
<path d="M20.8479 106.522H18.8421C18.7721 106.522 18.705 106.494 18.6555 106.444C18.606 106.395 18.5782 106.328 18.5781 106.258V103.198C18.5782 103.128 18.606 103.061 18.6555 103.012C18.705 102.962 18.7721 102.935 18.8421 102.935H20.8479C20.9179 102.935 20.985 102.962 21.0344 103.012C21.0839 103.061 21.1118 103.128 21.1118 103.198V106.258C21.1118 106.328 21.0839 106.395 21.0344 106.444C20.985 106.494 20.9179 106.522 20.8479 106.522Z" fill="white"/>
<path d="M16.9416 112.114H14.9358C14.8658 112.114 14.7987 112.086 14.7493 112.036C14.6998 111.987 14.672 111.92 14.6719 111.85V108.79C14.672 108.72 14.6998 108.653 14.7493 108.604C14.7987 108.554 14.8658 108.526 14.9358 108.526H16.9416C17.0116 108.526 17.0787 108.554 17.1282 108.604C17.1777 108.653 17.2055 108.72 17.2056 108.79V111.85C17.2055 111.92 17.1777 111.987 17.1282 112.036C17.0787 112.086 17.0116 112.114 16.9416 112.114Z" fill="white"/>
<path d="M20.8479 112.114H18.8421C18.7721 112.114 18.705 112.086 18.6555 112.036C18.606 111.987 18.5782 111.92 18.5781 111.85V108.79C18.5782 108.72 18.606 108.653 18.6555 108.604C18.705 108.554 18.7721 108.526 18.8421 108.526H20.8479C20.9179 108.526 20.985 108.554 21.0344 108.604C21.0839 108.653 21.1118 108.72 21.1118 108.79V111.85C21.1118 111.92 21.0839 111.987 21.0344 112.036C20.985 112.086 20.9179 112.114 20.8479 112.114Z" fill="white"/>
<path d="M155.091 126.781H153.659C153.552 126.781 153.449 126.739 153.374 126.663C153.298 126.588 153.256 126.485 153.256 126.379V124.5C153.256 124.393 153.298 124.291 153.374 124.216C153.449 124.14 153.552 124.098 153.659 124.098H155.091C155.198 124.098 155.3 124.14 155.375 124.216C155.451 124.291 155.493 124.393 155.494 124.5V126.379C155.493 126.485 155.451 126.588 155.375 126.663C155.3 126.739 155.198 126.781 155.091 126.781Z" fill="black" fill-opacity="0.1"/>
<path d="M167.175 142.078H159.835C159.633 142.078 159.44 141.997 159.297 141.855C159.155 141.712 159.074 141.519 159.074 141.317V127.094C159.074 126.893 159.155 126.699 159.297 126.557C159.44 126.414 159.633 126.334 159.835 126.334H167.175C167.376 126.334 167.57 126.414 167.712 126.557C167.855 126.699 167.935 126.893 167.936 127.094V141.317C167.935 141.519 167.855 141.712 167.712 141.855C167.57 141.997 167.376 142.078 167.175 142.078Z" fill="black" fill-opacity="0.1"/>
<path d="M162.789 142.078H150.079C149.877 142.078 149.684 141.997 149.541 141.855C149.399 141.712 149.319 141.519 149.318 141.317V127.094C149.319 126.893 149.399 126.699 149.541 126.557C149.684 126.414 149.877 126.334 150.079 126.334H162.789C162.991 126.334 163.184 126.414 163.327 126.557C163.47 126.699 163.55 126.893 163.55 127.094V141.317C163.55 141.519 163.47 141.712 163.327 141.855C163.184 141.997 162.991 142.078 162.789 142.078Z" fill="#D08D7A"/>
<path d="M153.749 126.781H152.317C152.21 126.781 152.108 126.739 152.032 126.663C151.957 126.588 151.914 126.485 151.914 126.379V124.5C151.914 124.393 151.957 124.291 152.032 124.216C152.108 124.14 152.21 124.098 152.317 124.098H153.749C153.856 124.098 153.958 124.14 154.034 124.216C154.109 124.291 154.152 124.393 154.152 124.5V126.379C154.152 126.485 154.109 126.588 154.034 126.663C153.958 126.739 153.856 126.781 153.749 126.781Z" fill="#D08D7A"/>
<path d="M155.63 133.357H153.929C153.87 133.357 153.813 133.333 153.771 133.291C153.729 133.249 153.705 133.193 153.705 133.133V130.539C153.705 130.48 153.729 130.423 153.771 130.381C153.813 130.339 153.87 130.315 153.929 130.315H155.63C155.689 130.315 155.746 130.339 155.788 130.381C155.83 130.423 155.853 130.48 155.853 130.539V133.133C155.853 133.193 155.83 133.249 155.788 133.291C155.746 133.333 155.689 133.357 155.63 133.357Z" fill="white"/>
<path d="M158.94 133.357H157.239C157.18 133.357 157.123 133.333 157.081 133.291C157.039 133.249 157.016 133.193 157.016 133.133V130.539C157.016 130.48 157.039 130.423 157.081 130.381C157.123 130.339 157.18 130.315 157.239 130.315H158.94C158.999 130.315 159.056 130.339 159.098 130.381C159.14 130.423 159.164 130.48 159.164 130.539V133.133C159.164 133.193 159.14 133.249 159.098 133.291C159.056 133.333 158.999 133.357 158.94 133.357Z" fill="white"/>
<path d="M155.63 138.097H153.929C153.87 138.097 153.813 138.073 153.771 138.031C153.729 137.99 153.705 137.933 153.705 137.873V135.279C153.705 135.22 153.729 135.163 153.771 135.121C153.813 135.079 153.87 135.056 153.929 135.056H155.63C155.689 135.056 155.746 135.079 155.788 135.121C155.83 135.163 155.853 135.22 155.853 135.279V137.873C155.853 137.933 155.83 137.99 155.788 138.031C155.746 138.073 155.689 138.097 155.63 138.097Z" fill="white"/>
<path d="M158.94 138.097H157.239C157.18 138.097 157.123 138.073 157.081 138.031C157.039 137.99 157.016 137.933 157.016 137.873V135.279C157.016 135.22 157.039 135.163 157.081 135.121C157.123 135.079 157.18 135.056 157.239 135.056H158.94C158.999 135.056 159.056 135.079 159.098 135.121C159.14 135.163 159.164 135.22 159.164 135.279V137.873C159.164 137.933 159.14 137.99 159.098 138.031C159.056 138.073 158.999 138.097 158.94 138.097Z" fill="white"/>
<rect x="179.5" width="32" height="32" rx="16" fill="white"/>
<path d="M200.54 27.9736C199.126 29.3336 197.313 30.0136 195.5 30.0136C193.686 30.0136 191.873 29.3203 190.46 27.9603C189.98 27.5069 189.5 27.0003 189.02 26.4803L206.22 9.28027C206.553 10.0003 206.806 10.7603 206.993 11.6003C208.553 18.4803 204.34 24.2936 200.54 27.9736Z" fill="#FF2A2A"/>
<path d="M208.527 2.97285C208.127 2.57285 207.474 2.57285 207.074 2.97285L182.474 27.5862C182.074 27.9862 182.074 28.6395 182.474 29.0395C182.674 29.2262 182.927 29.3329 183.194 29.3329C183.46 29.3329 183.714 29.2262 183.914 29.0262L208.527 4.41285C208.94 4.01285 208.94 3.37285 208.527 2.97285Z" fill="#FF2A2A"/>
<path d="M191.3 13.747C191.3 11.427 193.18 9.54699 195.5 9.54699C197.246 9.54699 198.74 10.6137 199.38 12.1337L204.686 6.82699C202.326 3.97366 198.753 2.66699 195.5 2.66699C193.14 2.66699 190.62 3.36033 188.513 4.81366C186.406 6.28033 184.7 8.50699 184.006 11.587C182.886 16.4803 184.7 20.8537 187.22 24.2803L193.886 17.6137C192.366 16.987 191.3 15.4803 191.3 13.747Z" fill="#FF2A2A"/>
</svg>
