<svg width="214" height="208" viewBox="0 0 214 208" fill="none" xmlns="http://www.w3.org/2000/svg">
<g clip-path="url(#clip0_2936_8868)">
<path d="M135.856 46.7783H78.1924C76.8783 46.7799 75.6185 47.3003 74.6894 48.2255C73.7602 49.1508 73.2375 50.4052 73.2359 51.7136V179.325L72.575 179.526L58.4292 183.84C57.7588 184.043 57.0347 183.973 56.4158 183.646C55.7969 183.318 55.3339 182.76 55.1283 182.092L13.0509 45.2351C12.8461 44.5676 12.9159 43.8464 13.2449 43.23C13.5739 42.6137 14.1353 42.1526 14.8055 41.9482L36.6042 35.3019L99.7994 16.0409L121.598 9.39462C121.93 9.29295 122.278 9.25743 122.624 9.29007C122.969 9.32272 123.305 9.4229 123.612 9.58487C123.918 9.74684 124.19 9.96743 124.411 10.234C124.632 10.5006 124.798 10.8079 124.899 11.1384L135.655 46.1202L135.856 46.7783Z" fill="#F2F2F2"/>
<path d="M148.439 46.1207L135.476 3.95966C135.26 3.25718 134.908 2.6039 134.438 2.03715C133.969 1.4704 133.392 1.00129 132.741 0.656622C132.089 0.311956 131.376 0.0984869 130.642 0.0284218C129.907 -0.0416433 129.166 0.0330682 128.461 0.248279L97.8134 9.58925L34.6216 28.8536L3.97396 38.1978C2.55023 38.6332 1.35813 39.6132 0.65931 40.9228C-0.0395084 42.2324 -0.187947 43.7646 0.246582 45.183L44.551 189.272C44.904 190.417 45.6162 191.419 46.5832 192.132C47.5502 192.844 48.721 193.229 49.9239 193.23C50.4806 193.231 51.0342 193.147 51.5661 192.984L72.575 186.581L73.2358 186.377V185.689L72.575 185.89L51.3712 192.355C50.1145 192.737 48.7571 192.606 47.5969 191.992C46.4366 191.379 45.5682 190.332 45.1822 189.081L0.881148 44.9889C0.689857 44.3693 0.623187 43.7182 0.684954 43.073C0.74672 42.4277 0.935704 41.8009 1.2411 41.2285C1.54649 40.656 1.96229 40.1492 2.46468 39.737C2.96707 39.3248 3.54618 39.0153 4.16885 38.8263L34.8165 29.482L98.0084 10.221L128.656 0.87672C129.128 0.7332 129.619 0.660022 130.113 0.659564C131.173 0.661933 132.204 1.00213 133.056 1.63032C133.907 2.25852 134.534 3.1417 134.845 4.1505L147.748 46.1207L147.953 46.7788H148.641L148.439 46.1207Z" fill="#3F3D56"/>
<path d="M40.5386 42.0556C39.9017 42.0551 39.2817 41.8514 38.7696 41.4744C38.2575 41.0974 37.8802 40.5669 37.6931 39.9608L33.437 26.1182C33.3226 25.7463 33.2829 25.3557 33.3202 24.9686C33.3575 24.5815 33.471 24.2055 33.6542 23.862C33.8374 23.5186 34.0868 23.2145 34.3881 22.967C34.6893 22.7196 35.0366 22.5337 35.4101 22.4199L93.546 4.69742C94.3002 4.46827 95.1149 4.54642 95.8112 4.91473C96.5076 5.28304 97.0288 5.9114 97.2603 6.66192L101.516 20.5047C101.746 21.2556 101.668 22.0668 101.298 22.7601C100.928 23.4535 100.297 23.9724 99.5435 24.2031L41.4074 41.9256C41.1259 42.0116 40.833 42.0554 40.5386 42.0556Z" fill="#1B847A" fill-opacity="0.75"/>
<path d="M62.8333 14.7908C66.4831 14.7908 69.4419 11.8446 69.4419 8.21035C69.4419 4.57606 66.4831 1.62988 62.8333 1.62988C59.1834 1.62988 56.2246 4.57606 56.2246 8.21035C56.2246 11.8446 59.1834 14.7908 62.8333 14.7908Z" fill="#1B847A" fill-opacity="0.75"/>
<path d="M62.8332 12.3779C65.1444 12.3779 67.018 10.5122 67.018 8.2109C67.018 5.90956 65.1444 4.04395 62.8332 4.04395C60.522 4.04395 58.6484 5.90956 58.6484 8.2109C58.6484 10.5122 60.522 12.3779 62.8332 12.3779Z" fill="white"/>
<path d="M199.132 191.549H87.4454C86.7008 191.548 85.9868 191.253 85.4603 190.729C84.9338 190.205 84.6376 189.494 84.6367 188.752V55.4979C84.6376 54.7564 84.9337 54.0455 85.4603 53.5212C85.9868 52.9969 86.7007 52.702 87.4454 52.7012H199.132C199.876 52.702 200.59 52.997 201.117 53.5213C201.643 54.0455 201.939 54.7564 201.94 55.4979V188.752C201.939 189.494 201.643 190.205 201.117 190.729C200.59 191.253 199.876 191.548 199.132 191.549Z" fill="#E6E6E6"/>
<path d="M157.93 93C152.048 93 146.783 95.8674 143.5 100.266C140.218 95.8674 134.952 93 129.07 93C119.092 93 111 101.146 111 111.215C111 115.092 111.617 118.676 112.69 122C117.825 138.292 133.653 148.035 141.485 150.707C142.59 151.098 144.41 151.098 145.515 150.707C153.347 148.035 169.175 138.292 174.31 122C175.382 118.676 176 115.092 176 111.215C176 101.146 167.908 93 157.93 93Z" fill="#FF2A2A"/>
<path d="M147.748 46.1201H78.1916C76.7024 46.1222 75.2748 46.7122 74.2218 47.7607C73.1688 48.8092 72.5763 50.2307 72.5742 51.7135V185.889L73.2351 185.689V51.7135C73.2367 50.4051 73.7594 49.1507 74.6886 48.2255C75.6177 47.3002 76.8775 46.7798 78.1916 46.7782H147.952L147.748 46.1201ZM208.382 46.1201H78.1916C76.7024 46.1222 75.2748 46.7122 74.2218 47.7607C73.1688 48.8092 72.5763 50.2307 72.5742 51.7135V202.406C72.5763 203.889 73.1688 205.311 74.2218 206.359C75.2748 207.408 76.7024 207.998 78.1916 208H208.382C209.871 207.998 211.299 207.408 212.352 206.359C213.405 205.311 213.997 203.889 213.999 202.406V51.7135C213.997 50.2307 213.405 48.8092 212.352 47.7607C211.299 46.7122 209.871 46.1222 208.382 46.1201ZM213.338 202.406C213.337 203.715 212.814 204.969 211.885 205.894C210.956 206.82 209.696 207.34 208.382 207.342H78.1916C76.8775 207.34 75.6177 206.82 74.6886 205.894C73.7594 204.969 73.2367 203.715 73.2351 202.406V51.7135C73.2367 50.4051 73.7594 49.1507 74.6886 48.2255C75.6177 47.3002 76.8775 46.7798 78.1916 46.7782H208.382C209.696 46.7798 210.956 47.3002 211.885 48.2255C212.814 49.1507 213.337 50.4051 213.338 51.7135V202.406Z" fill="#3F3D56"/>
<path d="M173.688 60.5977H112.888C112.1 60.5968 111.344 60.2845 110.786 59.7294C110.229 59.1743 109.915 58.4216 109.914 57.6365V43.1595C109.915 42.3744 110.229 41.6217 110.786 41.0665C111.344 40.5114 112.1 40.1991 112.888 40.1982H173.688C174.476 40.1991 175.232 40.5114 175.789 41.0665C176.347 41.6217 176.661 42.3744 176.661 43.1595V57.6365C176.661 58.4216 176.347 59.1743 175.789 59.7294C175.232 60.2845 174.476 60.5968 173.688 60.5977Z" fill="#1B847A" fill-opacity="0.75"/>
<path d="M143.288 41.1854C146.938 41.1854 149.897 38.2392 149.897 34.6049C149.897 30.9706 146.938 28.0244 143.288 28.0244C139.638 28.0244 136.68 30.9706 136.68 34.6049C136.68 38.2392 139.638 41.1854 143.288 41.1854Z" fill="#1B847A" fill-opacity="0.75"/>
<path d="M143.287 38.6129C145.51 38.6129 147.312 36.8184 147.312 34.6048C147.312 32.3912 145.51 30.5967 143.287 30.5967C141.064 30.5967 139.262 32.3912 139.262 34.6048C139.262 36.8184 141.064 38.6129 143.287 38.6129Z" fill="white"/>
<path d="M141.32 126.28L140.08 108H147.52L146.28 126.28H141.32ZM143.8 136.32C142.68 136.32 141.76 135.96 141.04 135.24C140.32 134.52 139.96 133.667 139.96 132.68C139.96 131.667 140.32 130.827 141.04 130.16C141.76 129.467 142.68 129.12 143.8 129.12C144.947 129.12 145.867 129.467 146.56 130.16C147.28 130.827 147.64 131.667 147.64 132.68C147.64 133.667 147.28 134.52 146.56 135.24C145.867 135.96 144.947 136.32 143.8 136.32Z" fill="white"/>
</g>
<defs>
<clipPath id="clip0_2936_8868">
<rect width="214" height="208" fill="white"/>
</clipPath>
</defs>
</svg>
