<svg width="25" height="24" viewBox="0 0 25 24" fill="none" xmlns="http://www.w3.org/2000/svg">
<g clip-path="url(#clip0_2994_8820)">
<path d="M16.8008 16.2291C16.4072 16.2055 15.4607 16.2615 14.5128 16.4416C13.9646 15.8867 13.4898 15.1876 13.1375 14.611C14.2662 11.3658 13.5514 10.4434 12.5892 10.4434C11.8337 10.4434 11.4564 11.2408 11.5404 12.1217C11.5828 12.5652 11.9584 13.497 12.4207 14.3822C12.1371 15.128 11.631 16.3887 11.1286 17.301C10.5406 17.4797 10.0362 17.6783 9.67422 17.8458C7.87117 18.6843 7.72628 19.8039 8.10147 20.2783C8.81383 21.1796 10.3316 20.402 11.8546 17.6783C12.8972 17.3818 14.269 16.9868 14.3927 16.9868C14.4069 16.9868 14.4265 16.9913 14.4491 16.9986C15.2092 17.6689 16.1069 18.4363 16.8457 18.5373C17.9148 18.6843 18.5234 17.9089 18.4812 17.4267C18.4394 16.9443 18.1576 16.3106 16.8008 16.2291ZM10.0515 19.1671C9.61085 19.691 8.89811 20.1936 8.64658 20.0265C8.39472 19.859 8.35291 19.3768 8.91935 18.8313C9.48541 18.2865 10.4329 18.0036 10.5754 17.9507C10.7437 17.888 10.7855 17.9507 10.7855 18.0346C10.7855 18.1186 10.4918 18.6425 10.0515 19.1671ZM11.981 12.1213C11.9388 11.5967 12.0433 11.0938 12.484 11.031C12.924 10.9677 13.1341 11.471 12.9664 12.2886C12.7985 13.1072 12.7143 13.6517 12.6306 13.7155C12.5467 13.7782 12.4634 13.5681 12.4634 13.5681C12.2952 13.2322 12.0228 12.6453 11.981 12.1213ZM12.1489 17.0491C12.3791 16.6711 12.9665 15.1412 12.9665 15.1412C13.0923 15.3721 14.0774 16.5454 14.0774 16.5454C14.0774 16.5454 12.5676 16.8816 12.1489 17.0491ZM16.7189 17.7193C16.0901 17.6365 15.0211 16.8805 15.0211 16.8805C14.8744 16.8178 16.1926 16.6388 16.6987 16.6712C17.3491 16.7134 17.5797 16.9861 17.5797 17.2585C17.5797 17.5312 17.3491 17.8033 16.7189 17.7193Z" fill="#FF2A2A"/>
<path d="M22.1242 5.04656L17.5145 0.4365L17.078 0H16.46H7.05905C4.83938 0 3.03356 1.80619 3.03356 4.02661V4.33458H2.4375V9.15019H3.03356V19.9738C3.03356 22.1939 4.83942 24 7.05909 24H18.5345C20.7548 24 22.5607 22.1939 22.5607 19.9738V6.10102V5.48339L22.1242 5.04656ZM18.5344 22.509H7.05905C5.65866 22.509 4.52377 21.3741 4.52377 19.9738V9.15014H11.8977V4.33453H4.52377V4.02656C4.52377 2.62584 5.65866 1.49053 7.05905 1.49053H16.1033V4.34494C16.1033 5.51156 17.0497 6.45736 18.2164 6.45736H21.0704V19.9737C21.0704 21.3742 19.9351 22.509 18.5344 22.509ZM4.6283 7.78528V5.55619C4.6283 5.51686 4.66031 5.48475 4.69973 5.48475H5.40792C5.52464 5.48475 5.63227 5.50392 5.72841 5.54156C5.82352 5.57883 5.90709 5.63109 5.9768 5.69728C6.04716 5.7638 6.10116 5.84466 6.13772 5.93733C6.17428 6.02822 6.19312 6.12755 6.19312 6.23236C6.19312 6.33933 6.17428 6.43927 6.13734 6.52917C6.10078 6.61908 6.04678 6.69881 5.97712 6.76608C5.9078 6.83297 5.82384 6.88556 5.7277 6.92212C5.63227 6.95869 5.52464 6.97716 5.40792 6.97716H5.10905V7.78533C5.10905 7.8247 5.07703 7.85672 5.03766 7.85672H4.69978C4.66031 7.85672 4.6283 7.82466 4.6283 7.78528ZM6.81244 7.78528V5.55619C6.81244 5.51686 6.8445 5.48475 6.88387 5.48475H7.66659C7.81533 5.48475 7.94634 5.5095 8.05678 5.55825C8.16863 5.60803 8.26856 5.68716 8.3543 5.79305C8.39855 5.84878 8.4337 5.91042 8.45911 5.97661C8.48386 6.04106 8.50266 6.11077 8.51484 6.18319C8.5267 6.25495 8.53364 6.3323 8.53608 6.41555C8.53819 6.49495 8.53922 6.58031 8.53922 6.67087C8.53922 6.76106 8.53819 6.84647 8.53608 6.92587C8.53364 7.0088 8.5267 7.08647 8.51484 7.15856C8.50266 7.23103 8.48386 7.30036 8.45911 7.36477C8.43333 7.43166 8.39817 7.49334 8.35458 7.548C8.26823 7.65497 8.1682 7.73405 8.05673 7.78312C7.94733 7.83187 7.81603 7.85663 7.66655 7.85663H6.88383C6.84445 7.85672 6.81244 7.82466 6.81244 7.78528ZM10.5429 6.46786C10.5823 6.46786 10.6143 6.49992 10.6143 6.5393V6.84305C10.6143 6.88242 10.5823 6.91448 10.5429 6.91448H9.68775V7.78537C9.68775 7.82475 9.65569 7.85677 9.61631 7.85677H9.27839C9.23902 7.85677 9.207 7.82475 9.207 7.78537V5.55628C9.207 5.51695 9.23902 5.48484 9.27839 5.48484H10.5746C10.614 5.48484 10.6461 5.51691 10.6461 5.55628V5.86003C10.6461 5.89941 10.614 5.93147 10.5746 5.93147H9.68775V6.46791L10.5429 6.46786Z" fill="#FF2A2A"/>
<path d="M5.62842 6.45523C5.68523 6.40405 5.7127 6.33125 5.7127 6.23262C5.7127 6.13437 5.68519 6.06158 5.62842 6.01039C5.56922 5.95742 5.49117 5.93164 5.38945 5.93164H5.10938V6.53389H5.38945C5.49112 6.53394 5.56922 6.5082 5.62842 6.45523Z" fill="#FF2A2A"/>
<path d="M7.81788 7.38142C7.87084 7.36155 7.91645 7.32953 7.95723 7.28355C8.00148 7.23409 8.02933 7.16303 8.04016 7.07209C8.05234 6.96859 8.05825 6.83345 8.05825 6.67042C8.05825 6.50706 8.05234 6.37188 8.04016 6.26875C8.02933 6.17753 8.00148 6.10647 7.95756 6.05734C7.91683 6.01131 7.86977 5.97864 7.81825 5.95942C7.76284 5.93819 7.69947 5.92773 7.62878 5.92773H7.29297V7.41273H7.62878C7.69909 7.41278 7.76284 7.40233 7.81788 7.38142Z" fill="#FF2A2A"/>
</g>
<defs>
<clipPath id="clip0_2994_8820">
<rect width="24" height="24" fill="white" transform="translate(0.5)"/>
</clipPath>
</defs>
</svg>
