<svg width="23" height="20" viewBox="0 0 23 20" fill="none" xmlns="http://www.w3.org/2000/svg">
<g clip-path="url(#clip0_2984_9659)">
<path d="M13.5315 15.3612C14.9052 14.6912 16.1945 14.0062 16.8735 12.9925C17.8131 11.591 17.3275 9.91742 16.8803 8.78058C16.3876 7.52841 16.4234 6.23525 16.9837 5.04091C17.231 4.51473 17.5727 4.0139 17.9995 3.55242L18.433 3.08399L16.6304 0.688682L16.125 1.00156C15.3071 1.50808 14.5913 1.75433 13.9372 1.75433C13.0584 1.75435 12.212 1.33361 11.3497 0.468057L10.8833 0L10.4172 0.46811C9.55532 1.33354 8.70898 1.75425 7.82973 1.75433C7.17136 1.75435 6.45563 1.50866 5.64158 1.0032L5.13627 0.689454L3.33398 3.08407L3.76744 3.5525C4.19388 4.01343 4.53563 4.51399 4.78291 5.04023C5.34358 6.23462 5.37951 7.52802 4.88694 8.78042C4.4395 9.91667 3.95335 11.5894 4.89316 12.9918C5.57222 14.0058 6.86023 14.6907 8.23257 15.3601C9.07765 15.7724 9.87598 16.1621 10.4552 16.6631L10.8834 17.0334L11.3118 16.6631C11.8879 16.1644 12.6835 15.7757 13.5258 15.364L13.5315 15.3612Z" fill="#E6D000"/>
<path fill-rule="evenodd" clip-rule="evenodd" d="M8.03516 10.7285C8.7052 11.3685 9.6452 11.7885 10.9952 11.7885C12.7852 11.7885 13.7752 10.8985 13.7752 9.55845C13.7752 7.9942 12.2754 7.66325 11.1677 7.41883C10.5192 7.27574 10.0052 7.1623 10.0052 6.84844C10.0052 6.56844 10.2252 6.36844 10.7252 6.36844C11.3852 6.36844 12.1152 6.59844 12.6752 7.05844L13.6152 5.82844C12.9052 5.21844 11.9752 4.89844 10.9052 4.89844C9.1952 4.89844 8.24516 5.89844 8.24516 7.01844C8.24516 8.6297 9.73087 8.94379 10.8394 9.1782C11.4991 9.3177 12.0252 9.42895 12.0252 9.76845C12.0252 10.0885 11.6652 10.3185 11.0752 10.3185C10.1652 10.3185 9.4252 9.91845 8.9452 9.43845L8.03516 10.7285Z" fill="white"/>
<path d="M2.77836 14.7033C2.34778 14.0224 2.13597 13.2608 2.13771 12.3715C1.7844 11.5465 1.5857 10.6569 1.4818 9.8125C1.05065 11.5747 1.19693 12.9091 1.91837 14.0154C2.32176 14.6346 2.90732 15.1839 3.60812 15.6917C3.28201 15.3834 3.00118 15.0559 2.77836 14.7033Z" fill="#E6D000"/>
<path d="M1.74368 14.1475C1.2678 13.4177 1.03053 12.6021 1.02588 11.6513C0.619019 10.7373 0.391188 9.74958 0.272667 8.8125C-0.214012 10.7475 -0.0488297 12.2127 0.765304 13.4277C1.26817 14.179 2.02159 14.8363 2.9244 15.4423C2.45083 15.0432 2.04839 14.6157 1.74368 14.1475Z" fill="#E6D000"/>
<path d="M18.7958 14.5605C19.4309 13.5559 19.5603 12.343 19.1813 10.7409C18.9756 12.4606 18.3523 14.3874 16.7096 15.3934C14.3004 16.8698 11.8678 18.3067 10.8868 19.8243C9.90568 18.3067 7.4733 16.8698 5.06345 15.3934C3.41996 14.3869 2.79721 12.4588 2.59195 10.7383C2.21165 12.3408 2.3408 13.5543 2.97704 14.5604C3.82144 15.8977 5.56997 16.8762 7.43996 17.843C8.72751 18.5095 9.94676 19.1402 10.8862 20.0017C11.8247 19.141 13.0422 18.5108 14.326 17.8458L14.3304 17.8434C16.2016 16.8766 17.9507 15.8981 18.7958 14.5605Z" fill="#E6D000"/>
<path d="M20.7489 11.6567C20.7441 12.6068 20.5066 13.4214 20.0312 14.1501C19.7266 14.6179 19.3245 15.045 18.8516 15.4441C19.7536 14.8384 20.5068 14.1812 21.0093 13.4303C21.8227 12.2174 21.9885 10.7527 21.5027 8.81836C21.3841 9.75511 21.1559 10.7431 20.7489 11.6567Z" fill="#E6D000"/>
<path d="M19.856 14.0185C20.5763 12.9139 20.7233 11.5803 20.2931 9.81836C20.189 10.6628 19.9899 11.5523 19.6365 12.377C19.638 13.2654 19.4263 14.0262 18.9964 14.7066C18.7737 15.0586 18.4933 15.3854 18.168 15.6932C18.868 15.186 19.4531 14.6374 19.856 14.0185Z" fill="#E6D000"/>
</g>
<defs>
<clipPath id="clip0_2984_9659">
<rect width="22.5" height="20" fill="white"/>
</clipPath>
</defs>
</svg>
