<svg width="39" height="38" viewBox="0 0 39 38" fill="none" xmlns="http://www.w3.org/2000/svg">
<rect width="39" height="38" rx="5.92" fill="white"/>
<g clip-path="url(#clip0_1882_8682)">
<path d="M19.9997 17.6665C14.1165 17.6665 9.33301 22.45 9.33301 28.3332V30.3332C9.33301 31.4298 10.2363 32.3332 11.333 32.3332H28.6663C29.763 32.3332 30.6663 31.4298 30.6663 30.3332V28.3332C30.6663 22.45 25.8828 17.6665 19.9997 17.6665Z" fill="black" fill-opacity="0.75"/>
<path d="M19.9993 5.6665C17.0617 5.6665 14.666 8.06222 14.666 10.9998C14.666 13.9375 17.0617 16.3332 19.9993 16.3332C22.937 16.3332 25.3327 13.9375 25.3327 10.9998C25.3327 8.06222 22.937 5.6665 19.9993 5.6665Z" fill="black" fill-opacity="0.75"/>
</g>
<defs>
<clipPath id="clip0_1882_8682">
<rect width="22" height="28" fill="white" transform="translate(9 5)"/>
</clipPath>
</defs>
</svg>
